<svg xmlns="http://www.w3.org/2000/svg" xmlns:xlink="http://www.w3.org/1999/xlink" width="500" zoomAndPan="magnify" viewBox="0 0 375 374.999991" height="500" preserveAspectRatio="xMidYMid meet" version="1.2"><defs><clipPath id="45e5e6794f"><path d="M 203 299 L 213 299 L 213 338.761719 L 203 338.761719 Z M 203 299 "/></clipPath><clipPath id="19f72cbc2f"><path d="M 220 302 L 250 302 L 250 338.761719 L 220 338.761719 Z M 220 302 "/></clipPath><clipPath id="f422154e5e"><path d="M 183 293 L 213 293 L 213 338.761719 L 183 338.761719 Z M 183 293 "/></clipPath><clipPath id="a739d9ac2b"><path d="M 174 36.511719 L 282.742188 36.511719 L 282.742188 84 L 174 84 Z M 174 36.511719 "/></clipPath><clipPath id="b148af48f4"><path d="M 92.242188 154 L 250 154 L 250 338.761719 L 92.242188 338.761719 Z M 92.242188 154 "/></clipPath></defs><g id="e494e3cb8f"><g clip-rule="nonzero" clip-path="url(#45e5e6794f)"><path style=" stroke:none;fill-rule:nonzero;fill:#c9a14a;fill-opacity:1;" d="M 207.175781 300.597656 C 209.050781 300.960938 210.980469 301.261719 212.914062 301.5625 L 212.914062 338.28125 C 210.980469 338.160156 209.109375 338.039062 207.175781 337.859375 C 205.910156 337.738281 204.582031 337.617188 203.3125 337.433594 L 203.3125 299.8125 C 204.582031 300.113281 205.847656 300.355469 207.175781 300.597656 Z M 207.175781 300.597656 "/></g><path style=" stroke:none;fill-rule:nonzero;fill:#c9a14a;fill-opacity:1;" d="M 212.855469 136.335938 L 212.855469 294.378906 C 211.707031 294.136719 210.558594 293.894531 209.472656 293.652344 C 208.6875 293.472656 207.902344 293.289062 207.175781 293.109375 C 206.632812 292.988281 206.152344 292.867188 205.667969 292.746094 C 204.882812 292.566406 204.097656 292.324219 203.371094 292.144531 L 203.371094 136.335938 Z M 212.855469 136.335938 "/><g clip-rule="nonzero" clip-path="url(#19f72cbc2f)"><path style=" stroke:none;fill-rule:nonzero;fill:#c9a14a;fill-opacity:1;" d="M 249.933594 320.34375 C 249.933594 323.425781 249.207031 326.503906 247.699219 329.222656 C 245.34375 333.511719 240.996094 336.769531 234.65625 337.554688 C 230.125 338.101562 225.535156 338.402344 220.824219 338.460938 C 220.703125 338.460938 220.644531 338.460938 220.523438 338.460938 L 220.523438 302.410156 C 223.964844 302.710938 227.40625 302.832031 230.910156 302.832031 C 231.394531 302.832031 231.875 302.832031 232.421875 302.832031 C 243.894531 302.710938 249.933594 311.527344 249.933594 320.34375 Z M 249.933594 320.34375 "/></g><path style=" stroke:none;fill-rule:nonzero;fill:#c9a14a;fill-opacity:1;" d="M 253.796875 76.851562 L 253.796875 83.3125 L 249.933594 83.3125 L 249.933594 300.417969 C 247.09375 298.0625 243.289062 296.550781 238.519531 296.613281 C 238.035156 296.613281 237.554688 296.613281 237.011719 296.613281 C 233.507812 296.613281 230.066406 296.492188 226.621094 296.1875 C 224.570312 296.007812 222.515625 295.828125 220.464844 295.523438 L 220.464844 132.53125 C 220.464844 130.417969 218.710938 128.667969 216.597656 128.667969 L 207.054688 128.667969 L 207.054688 83.496094 L 203.191406 83.496094 L 203.191406 76.851562 Z M 253.796875 76.851562 "/><path style=" stroke:none;fill-rule:nonzero;fill:#c9a14a;fill-opacity:1;" d="M 253.796875 73.046875 L 203.3125 73.046875 C 201.199219 73.046875 199.449219 74.800781 199.449219 76.914062 L 199.449219 83.554688 L 207.175781 83.554688 L 207.175781 80.777344 L 249.992188 80.777344 L 249.992188 83.375 L 257.722656 83.375 L 257.722656 76.851562 C 257.664062 74.738281 255.914062 73.046875 253.796875 73.046875 Z M 199.449219 136.335938 L 199.449219 290.996094 C 200.714844 291.359375 201.984375 291.78125 203.3125 292.144531 C 204.097656 292.382812 204.820312 292.566406 205.605469 292.746094 C 206.089844 292.867188 206.632812 292.988281 207.117188 293.109375 L 207.117188 136.335938 Z M 203.3125 299.8125 C 202.042969 299.511719 200.714844 299.207031 199.449219 298.90625 L 199.449219 336.890625 C 200.714844 337.074219 201.984375 337.253906 203.3125 337.433594 C 204.582031 337.617188 205.847656 337.738281 207.175781 337.859375 L 207.175781 300.597656 C 205.847656 300.355469 204.582031 300.113281 203.3125 299.8125 Z M 203.3125 299.8125 "/><g clip-rule="nonzero" clip-path="url(#f422154e5e)"><path style=" stroke:none;fill-rule:nonzero;fill:#c9a14a;fill-opacity:1;" d="M 207.175781 300.597656 C 209.050781 300.960938 210.980469 301.261719 212.914062 301.5625 L 212.914062 338.28125 C 210.980469 338.160156 209.109375 338.039062 207.175781 337.859375 C 205.910156 337.738281 204.582031 337.617188 203.3125 337.433594 C 202.042969 337.253906 200.714844 337.074219 199.449219 336.890625 C 194.011719 336.046875 188.636719 334.839844 183.445312 333.269531 L 183.445312 293.652344 C 188.636719 295.765625 193.953125 297.519531 199.449219 298.90625 C 200.714844 299.207031 201.984375 299.570312 203.3125 299.8125 C 204.582031 300.113281 205.847656 300.355469 207.175781 300.597656 Z M 207.175781 300.597656 "/></g><path style=" stroke:none;fill-rule:nonzero;fill:#c9a14a;fill-opacity:1;" d="M 212.855469 136.335938 L 212.855469 294.378906 C 211.707031 294.136719 210.558594 293.894531 209.472656 293.652344 C 208.6875 293.472656 207.902344 293.289062 207.175781 293.109375 C 206.632812 292.988281 206.152344 292.867188 205.667969 292.746094 C 204.882812 292.566406 204.097656 292.324219 203.371094 292.144531 C 202.105469 291.78125 200.777344 291.417969 199.507812 290.996094 C 196.1875 289.96875 192.863281 288.761719 189.664062 287.492188 C 187.609375 286.648438 185.558594 285.742188 183.503906 284.835938 L 183.503906 182.476562 C 183.503906 180.359375 181.8125 178.609375 179.640625 178.609375 L 170.097656 178.609375 L 170.097656 136.335938 Z M 212.855469 136.335938 "/><path style=" stroke:none;fill-rule:nonzero;fill:#c9a14a;fill-opacity:1;" d="M 170.039062 287.3125 C 171.910156 288.339844 173.84375 289.304688 175.773438 290.269531 L 175.773438 330.730469 C 173.84375 330.007812 171.96875 329.28125 170.039062 328.496094 C 168.769531 327.953125 167.441406 327.410156 166.171875 326.808594 L 166.171875 285.136719 C 167.5 285.863281 168.769531 286.585938 170.039062 287.3125 Z M 170.039062 287.3125 "/><path style=" stroke:none;fill-rule:nonzero;fill:#c9a14a;fill-opacity:1;" d="M 175.773438 186.339844 L 175.773438 280.910156 C 174.628906 280.304688 173.480469 279.640625 172.394531 278.976562 C 171.609375 278.496094 170.824219 278.070312 170.097656 277.589844 C 169.554688 277.285156 169.070312 276.925781 168.589844 276.621094 C 167.804688 276.140625 167.019531 275.597656 166.292969 275.113281 L 166.292969 186.339844 Z M 175.773438 186.339844 "/><path style=" stroke:none;fill-rule:nonzero;fill:#c9a14a;fill-opacity:1;" d="M 162.367188 186.339844 L 162.367188 272.394531 C 163.636719 273.300781 164.90625 274.207031 166.234375 275.113281 C 167.019531 275.65625 167.742188 276.140625 168.527344 276.621094 C 169.011719 276.925781 169.554688 277.285156 170.039062 277.589844 L 170.039062 186.339844 Z M 166.234375 285.136719 C 164.964844 284.351562 163.636719 283.566406 162.367188 282.78125 L 162.367188 324.933594 C 163.636719 325.597656 164.90625 326.203125 166.234375 326.808594 C 167.5 327.410156 168.769531 327.953125 170.097656 328.496094 L 170.097656 287.3125 C 168.769531 286.585938 167.5 285.863281 166.234375 285.136719 Z M 166.234375 285.136719 "/><path style=" stroke:none;fill-rule:nonzero;fill:#c9a14a;fill-opacity:1;" d="M 170.039062 287.3125 C 171.910156 288.339844 173.84375 289.304688 175.773438 290.269531 L 175.773438 330.730469 C 173.84375 330.007812 171.96875 329.28125 170.039062 328.496094 C 168.769531 327.953125 167.441406 327.410156 166.171875 326.808594 C 164.90625 326.203125 163.574219 325.597656 162.308594 324.933594 C 151.558594 319.5 141.652344 312.613281 132.898438 304.460938 L 132.898438 256.695312 C 141.292969 266.839844 151.195312 275.65625 162.308594 282.78125 C 163.574219 283.566406 164.84375 284.414062 166.171875 285.136719 C 167.5 285.863281 168.769531 286.585938 170.039062 287.3125 Z M 170.039062 287.3125 "/><path style=" stroke:none;fill-rule:nonzero;fill:#c9a14a;fill-opacity:1;" d="M 175.773438 186.339844 L 175.773438 280.910156 C 174.628906 280.304688 173.480469 279.640625 172.394531 278.976562 C 171.609375 278.496094 170.824219 278.070312 170.097656 277.589844 C 169.554688 277.285156 169.070312 276.925781 168.589844 276.621094 C 167.804688 276.140625 167.019531 275.597656 166.292969 275.113281 C 164.964844 274.207031 163.695312 273.363281 162.429688 272.394531 C 153.792969 266.113281 146.003906 258.746094 139.179688 250.472656 C 137.003906 247.878906 134.949219 245.160156 133.019531 242.382812 L 133.019531 186.339844 Z M 175.773438 186.339844 "/><g clip-rule="nonzero" clip-path="url(#a739d9ac2b)"><path style=" stroke:none;fill-rule:nonzero;fill:#c9a14a;fill-opacity:1;" d="M 174.6875 83.617188 L 199.449219 83.496094 L 207.175781 83.496094 L 249.933594 83.3125 L 257.664062 83.3125 L 282.726562 83.253906 L 228.554688 36.511719 Z M 174.6875 83.617188 "/></g><g clip-rule="nonzero" clip-path="url(#b148af48f4)"><path style=" stroke:none;fill-rule:nonzero;fill:#0a1f44;fill-opacity:1;" d="M 249.933594 320.34375 C 249.933594 323.425781 249.207031 326.503906 247.699219 329.222656 C 245.34375 333.511719 240.996094 336.769531 234.65625 337.554688 C 230.125 338.101562 225.535156 338.402344 220.824219 338.460938 C 220.703125 338.460938 220.644531 338.460938 220.523438 338.460938 C 217.925781 338.460938 215.390625 338.460938 212.855469 338.28125 C 210.921875 338.160156 209.050781 338.039062 207.117188 337.859375 C 205.847656 337.738281 204.519531 337.617188 203.253906 337.433594 C 201.984375 337.253906 200.65625 337.074219 199.386719 336.890625 C 193.953125 336.046875 188.578125 334.839844 183.382812 333.269531 C 180.785156 332.484375 178.25 331.636719 175.714844 330.730469 C 173.78125 330.007812 171.910156 329.28125 169.976562 328.496094 C 168.707031 327.953125 167.378906 327.410156 166.113281 326.808594 C 164.84375 326.203125 163.515625 325.597656 162.246094 324.933594 C 151.496094 319.5 141.59375 312.613281 132.835938 304.460938 C 108.257812 281.453125 92.617188 248.722656 92.375 212.367188 C 92.253906 191.652344 97.085938 172.085938 105.722656 154.753906 C 104.996094 158.984375 104.515625 163.210938 104.210938 167.558594 C 104.03125 170.277344 103.972656 173.054688 103.972656 175.890625 C 103.972656 206.570312 114.839844 234.710938 132.957031 256.632812 C 141.351562 266.777344 151.257812 275.597656 162.367188 282.722656 C 163.636719 283.507812 164.90625 284.351562 166.234375 285.078125 C 167.5 285.800781 168.769531 286.585938 170.097656 287.25 C 171.96875 288.277344 173.902344 289.246094 175.835938 290.210938 C 178.371094 291.417969 180.90625 292.566406 183.503906 293.59375 C 188.699219 295.707031 194.011719 297.457031 199.507812 298.847656 C 200.777344 299.148438 202.042969 299.511719 203.371094 299.753906 C 204.640625 300.054688 205.910156 300.296875 207.238281 300.539062 C 209.109375 300.898438 211.042969 301.203125 212.976562 301.503906 C 215.511719 301.867188 218.046875 302.167969 220.644531 302.347656 C 224.085938 302.652344 227.527344 302.773438 231.03125 302.773438 C 231.515625 302.773438 231.996094 302.773438 232.542969 302.773438 C 243.894531 302.710938 249.933594 311.527344 249.933594 320.34375 Z M 249.933594 320.34375 "/></g></g></svg>