<svg xmlns="http://www.w3.org/2000/svg" xmlns:xlink="http://www.w3.org/1999/xlink" width="800" zoomAndPan="magnify" viewBox="0 0 600 599.999999" height="800" preserveAspectRatio="xMidYMid meet" version="1.2"><defs><clipPath id="231e4f9b15"><path d="M 1 13.007812 L 600 13.007812 L 600 600 L 1 600 Z M 1 13.007812 "/></clipPath></defs><g id="076658dd00"><g clip-rule="nonzero" clip-path="url(#231e4f9b15)"><path style=" stroke:none;fill-rule:nonzero;fill:#0a1f44;fill-opacity:1;" d="M 313.753906 317.074219 C 312.03125 323.316406 305.738281 328.285156 299.519531 328.308594 C 292.964844 328.335938 286.703125 323.121094 284.914062 316.148438 C 283.183594 309.402344 286.832031 303.375 296.15625 298.226562 C 292.144531 296.457031 288.675781 294.4375 286.78125 290.597656 C 284.910156 286.8125 284.476562 283 285.957031 278.984375 C 288.113281 273.148438 294.113281 269.085938 300.171875 269.449219 C 307.039062 269.859375 312.566406 274.902344 313.746094 281.839844 C 314.882812 288.53125 311.097656 294.371094 302.902344 298.136719 C 312.480469 303.859375 315.777344 309.761719 313.753906 317.074219 Z M 332.164062 298.191406 C 341.105469 294.816406 344.949219 289.269531 343.710938 281.539062 C 342.644531 274.878906 337.09375 270.003906 330.316406 269.773438 C 323.585938 269.546875 317.578125 274.148438 316.148438 280.628906 C 314.402344 288.535156 318.191406 294.4375 327.492188 298.304688 C 317.519531 303.535156 314.050781 308.777344 315.734375 316.074219 C 317.316406 322.9375 323.292969 327.90625 329.910156 327.867188 C 336.171875 327.828125 341.953125 323.265625 343.714844 316.972656 C 345.886719 309.210938 342.792969 304.179688 332.164062 298.191406 Z M 270.28125 299.34375 C 262.425781 299.285156 256.324219 305.285156 256.269531 313.128906 C 256.214844 320.996094 262.210938 327.097656 270.042969 327.152344 C 277.863281 327.207031 284.046875 321.148438 284.117188 313.367188 C 284.183594 305.597656 278.066406 299.402344 270.28125 299.34375 Z M 299.828125 328.585938 C 292.121094 328.394531 285.777344 334.410156 285.550781 342.125 C 285.3125 350.167969 291.402344 356.511719 299.402344 356.554688 C 307.203125 356.59375 313.320312 350.597656 313.421875 342.8125 C 313.519531 335.03125 307.542969 328.777344 299.828125 328.585938 Z M 329.902344 328.84375 C 322.042969 328.824219 316.015625 334.929688 316.109375 342.816406 C 316.203125 350.453125 322.15625 356.339844 329.808594 356.359375 C 337.667969 356.382812 343.695312 350.273438 343.597656 342.386719 C 343.503906 334.75 337.550781 328.863281 329.902344 328.84375 Z M 269.386719 297.589844 C 277.03125 297.941406 283.367188 292.386719 283.832031 284.925781 C 284.320312 277.070312 278.605469 270.546875 270.933594 270.195312 C 263.078125 269.835938 256.699219 275.648438 256.46875 283.378906 C 256.238281 291.007812 261.910156 297.246094 269.386719 297.589844 Z M 270.113281 329.03125 C 262.667969 329.058594 256.5 335.335938 256.601562 342.78125 C 256.707031 350.03125 262.703125 356.050781 269.945312 356.171875 C 277.382812 356.296875 283.667969 350.140625 283.714844 342.683594 C 283.765625 335.234375 277.554688 329.003906 270.113281 329.03125 Z M 300.65625 266.972656 C 307.855469 266.890625 313.996094 260.691406 314 253.496094 C 314.003906 246.304688 307.867188 240.097656 300.667969 240.007812 C 293.496094 239.917969 287.234375 246.003906 287.0625 253.222656 C 286.886719 260.578125 293.289062 267.054688 300.65625 266.972656 Z M 359.960938 299.730469 C 352.820312 299.261719 346.324219 304.941406 345.691406 312.203125 C 345.050781 319.523438 350.941406 326.273438 358.394531 326.765625 C 365.535156 327.230469 372.03125 321.554688 372.664062 314.292969 C 373.304688 306.96875 367.414062 300.21875 359.960938 299.730469 Z M 329.742188 266.835938 C 336.890625 266.914062 343.109375 260.792969 343.1875 253.605469 C 343.265625 246.449219 337.152344 240.222656 329.96875 240.144531 C 322.820312 240.066406 316.601562 246.1875 316.523438 253.375 C 316.445312 260.53125 322.558594 266.757812 329.742188 266.835938 Z M 359.0625 297.289062 C 366.210938 297.367188 372.480469 291.199219 372.558594 284.007812 C 372.636719 276.851562 366.476562 270.578125 359.292969 270.5 C 352.144531 270.421875 345.878906 276.585938 345.796875 283.777344 C 345.71875 290.933594 351.878906 297.207031 359.0625 297.289062 Z M 359.425781 329.507812 C 352.316406 329.363281 346.402344 334.949219 346.109375 342.09375 C 345.804688 349.402344 351.597656 355.546875 358.929688 355.699219 C 366.039062 355.84375 371.953125 350.253906 372.25 343.113281 C 372.550781 335.800781 366.761719 329.65625 359.425781 329.507812 Z M 240.949219 300.355469 C 233.644531 300.296875 228.011719 305.835938 227.957031 313.132812 C 227.902344 320.449219 233.429688 326.085938 240.722656 326.140625 C 248.03125 326.195312 253.660156 320.660156 253.714844 313.363281 C 253.769531 306.046875 248.242188 300.410156 240.949219 300.355469 Z M 299.925781 360.054688 C 292.628906 359.832031 286.773438 365.308594 286.546875 372.5625 C 286.324219 379.867188 291.792969 385.730469 299.042969 385.953125 C 306.335938 386.179688 312.195312 380.703125 312.417969 373.449219 C 312.644531 366.144531 307.171875 360.28125 299.925781 360.054688 Z M 269.925781 266.4375 C 277.222656 266.558594 282.976562 261.003906 283.09375 253.726562 C 283.214844 246.421875 277.667969 240.660156 270.394531 240.542969 C 263.097656 240.421875 257.34375 245.976562 257.226562 253.253906 C 257.105469 260.558594 262.65625 266.320312 269.925781 266.4375 Z M 270.328125 360.371094 C 263.3125 360.289062 257.679688 365.722656 257.539062 372.703125 C 257.394531 379.9375 263.039062 385.683594 270.25 385.640625 C 277.246094 385.597656 282.761719 380.050781 282.78125 373.042969 C 282.800781 366.035156 277.3125 360.449219 270.328125 360.371094 Z M 240.800781 329.96875 C 233.796875 329.984375 228.257812 335.503906 228.214844 342.507812 C 228.171875 349.527344 233.628906 355.132812 240.613281 355.238281 C 247.839844 355.34375 253.539062 349.664062 253.457031 342.433594 C 253.378906 335.441406 247.800781 329.949219 240.800781 329.96875 Z M 329.582031 360.207031 C 322.5 360.324219 317.121094 365.777344 317.070312 372.886719 C 317.015625 380.230469 322.546875 385.808594 329.867188 385.804688 C 337.1875 385.796875 342.707031 380.203125 342.640625 372.859375 C 342.574219 365.558594 336.921875 360.082031 329.582031 360.207031 Z M 240.835938 296.652344 C 248.125 296.652344 253.640625 291.074219 253.582031 283.761719 C 253.527344 276.484375 247.894531 271.015625 240.578125 271.132812 C 233.523438 271.246094 228.144531 276.683594 228.089844 283.761719 C 228.03125 291.074219 233.546875 296.652344 240.835938 296.652344 Z M 359.359375 266.125 C 366.34375 266.039062 371.824219 260.453125 371.800781 253.4375 C 371.773438 246.429688 366.253906 240.890625 359.257812 240.855469 C 352.246094 240.820312 346.652344 246.289062 346.554688 253.28125 C 346.457031 260.515625 352.136719 266.214844 359.359375 266.125 Z M 388.34375 300.753906 C 381.695312 300.847656 376.082031 306.492188 376.019531 313.144531 C 375.957031 319.988281 381.832031 325.839844 388.660156 325.742188 C 395.304688 325.648438 400.921875 320 400.984375 313.351562 C 401.046875 306.507812 395.171875 300.65625 388.34375 300.753906 Z M 388.875 296.300781 C 395.503906 296.054688 401.054688 290.214844 400.894531 283.648438 C 400.738281 277.035156 394.953125 271.410156 388.386719 271.484375 C 381.769531 271.5625 376.117188 277.265625 376.109375 283.878906 C 376.097656 290.675781 382.132812 296.550781 388.875 296.300781 Z M 359.214844 360.558594 C 352.386719 360.535156 346.515625 366.558594 346.746094 373.359375 C 346.96875 380.027344 352.792969 385.589844 359.402344 385.449219 C 366.042969 385.308594 371.667969 379.535156 371.609375 372.914062 C 371.550781 366.261719 365.855469 360.585938 359.214844 360.558594 Z M 300.636719 236.582031 C 307.28125 236.511719 312.945312 230.804688 312.960938 224.160156 C 312.980469 217.519531 307.335938 211.789062 300.683594 211.691406 C 294.074219 211.59375 288.28125 217.191406 288.097656 223.851562 C 287.914062 230.660156 293.816406 236.652344 300.636719 236.582031 Z M 388.332031 330.34375 C 381.871094 330.449219 376.398438 335.90625 376.253906 342.378906 C 376.105469 349.003906 381.75 354.800781 388.410156 354.863281 C 395.054688 354.925781 400.777344 349.222656 400.75 342.5625 C 400.722656 335.90625 394.957031 330.230469 388.332031 330.34375 Z M 240.429688 265.878906 C 246.992188 266.144531 252.941406 260.574219 253.210938 253.898438 C 253.476562 247.328125 247.910156 241.375 241.246094 241.101562 C 234.679688 240.835938 228.734375 246.40625 228.460938 253.082031 C 228.195312 259.65625 233.761719 265.605469 240.429688 265.878906 Z M 329.867188 236.480469 C 336.492188 236.46875 342.191406 230.75 342.183594 224.121094 C 342.175781 217.492188 336.460938 211.785156 329.839844 211.792969 C 323.214844 211.800781 317.515625 217.523438 317.523438 224.148438 C 317.535156 230.78125 323.246094 236.488281 329.867188 236.480469 Z M 270.386719 236.261719 C 276.9375 236.125 282.253906 230.714844 282.273438 224.167969 C 282.296875 217.425781 276.652344 211.867188 269.933594 212.007812 C 263.382812 212.148438 258.066406 217.554688 258.046875 224.101562 C 258.023438 230.847656 263.664062 236.40625 270.386719 236.261719 Z M 240.84375 361.007812 C 234.207031 361.003906 228.929688 366.21875 228.851562 372.867188 C 228.773438 379.511719 233.929688 384.855469 240.566406 385 C 247.402344 385.15625 252.890625 379.726562 252.820312 372.882812 C 252.753906 366.234375 247.488281 361.011719 240.84375 361.007812 Z M 299.582031 390.46875 C 292.875 390.417969 287.660156 395.550781 287.605469 402.257812 C 287.554688 408.980469 292.679688 414.195312 299.382812 414.25 C 306.097656 414.300781 311.308594 409.171875 311.359375 402.460938 C 311.410156 395.738281 306.285156 390.523438 299.582031 390.46875 Z M 211.742188 301.402344 C 204.984375 301.289062 199.730469 306.402344 199.679688 313.148438 C 199.632812 319.703125 204.523438 324.855469 211.019531 325.085938 C 217.796875 325.328125 223.167969 320.328125 223.34375 313.609375 C 223.519531 306.839844 218.464844 301.515625 211.742188 301.402344 Z M 329.707031 390.578125 C 323.199219 390.644531 318.195312 395.613281 318.085938 402.113281 C 317.972656 408.875 323.023438 414.085938 329.738281 414.140625 C 336.492188 414.195312 341.632812 409.09375 341.625 402.34375 C 341.617188 395.601562 336.460938 390.507812 329.707031 390.578125 Z M 211.753906 330.964844 C 205.234375 330.855469 200.054688 335.773438 199.886719 342.230469 C 199.71875 348.765625 204.574219 354.007812 211.011719 354.238281 C 217.761719 354.476562 223.085938 349.414062 223.136719 342.714844 C 223.1875 336.191406 218.226562 331.074219 211.753906 330.964844 Z M 211.300781 295.636719 C 218.097656 295.734375 223.265625 290.628906 223.242188 283.84375 C 223.21875 277.28125 218.257812 272.246094 211.726562 272.152344 C 204.929688 272.054688 199.757812 277.15625 199.78125 283.941406 C 199.804688 290.503906 204.765625 295.542969 211.300781 295.636719 Z M 388.359375 361.4375 C 381.925781 361.507812 376.875 366.6875 376.945312 373.144531 C 377.015625 379.589844 382.191406 384.644531 388.640625 384.574219 C 395.078125 384.503906 400.128906 379.324219 400.058594 372.863281 C 399.988281 366.421875 394.8125 361.367188 388.359375 361.4375 Z M 270.34375 390.722656 C 263.832031 390.636719 258.675781 395.578125 258.535156 402.042969 C 258.386719 408.78125 263.527344 414.035156 270.234375 413.996094 C 276.730469 413.960938 281.761719 408.914062 281.785156 402.414062 C 281.808594 395.894531 276.828125 390.804688 270.34375 390.722656 Z M 388.480469 265.246094 C 395.054688 265.253906 400.117188 260.316406 400.246094 253.773438 C 400.375 246.960938 395.296875 241.746094 388.523438 241.734375 C 381.949219 241.726562 376.882812 246.664062 376.757812 253.207031 C 376.628906 260.019531 381.707031 265.238281 388.480469 265.246094 Z M 359.113281 235.878906 C 365.683594 235.910156 370.765625 230.988281 370.90625 224.460938 C 371.058594 217.65625 366 212.425781 359.242188 212.394531 C 352.671875 212.363281 347.59375 217.28125 347.449219 223.808594 C 347.296875 230.613281 352.355469 235.847656 359.113281 235.878906 Z M 240.566406 235.679688 C 246.984375 235.820312 252.292969 230.695312 252.367188 224.277344 C 252.441406 217.851562 247.261719 212.597656 240.847656 212.59375 C 234.632812 212.589844 229.511719 217.535156 229.304688 223.734375 C 229.09375 230.160156 234.160156 235.535156 240.566406 235.679688 Z M 418.984375 301.859375 C 412.90625 301.785156 407.570312 307.023438 407.496094 313.132812 C 407.421875 319.21875 412.65625 324.5625 418.757812 324.636719 C 424.847656 324.710938 430.175781 319.480469 430.25 313.363281 C 430.320312 307.277344 425.089844 301.933594 418.984375 301.859375 Z M 359.210938 390.859375 C 353.023438 390.839844 347.855469 395.867188 347.691406 402.0625 C 347.523438 408.457031 352.746094 413.839844 359.144531 413.859375 C 365.332031 413.878906 370.503906 408.851562 370.664062 402.65625 C 370.835938 396.261719 365.609375 390.878906 359.210938 390.859375 Z M 211.527344 264.949219 C 217.640625 264.945312 222.816406 259.867188 222.960938 253.738281 C 223.109375 247.421875 217.820312 242.023438 211.5 242.03125 C 205.382812 242.039062 200.207031 247.113281 200.0625 253.242188 C 199.914062 259.558594 205.203125 264.957031 211.527344 264.949219 Z M 300.417969 206.171875 C 306.496094 206.242188 311.835938 201.003906 311.90625 194.894531 C 311.980469 188.808594 306.746094 183.464844 300.644531 183.394531 C 294.554688 183.320312 289.226562 188.546875 289.152344 194.667969 C 289.082031 200.753906 294.3125 206.097656 300.417969 206.171875 Z M 211.5 361.714844 C 205.628906 361.726562 200.476562 366.71875 200.234375 372.628906 C 199.988281 378.648438 205.171875 384.132812 211.265625 384.292969 C 217.296875 384.457031 222.710938 379.207031 222.789062 373.121094 C 222.867188 367.0625 217.5625 361.707031 211.5 361.714844 Z M 418.699219 295.207031 C 424.75 295.320312 430.148438 290.023438 430.175781 283.9375 C 430.203125 278.070312 425.214844 272.859375 419.308594 272.582031 C 413.292969 272.296875 407.769531 277.476562 407.570312 283.589844 C 407.371094 289.625 412.605469 295.09375 418.699219 295.207031 Z M 240.710938 391.058594 C 234.628906 391.144531 229.378906 396.582031 229.546875 402.617188 C 229.710938 408.515625 234.824219 413.574219 240.703125 413.660156 C 246.75 413.75 252.121094 408.4375 252.125 402.363281 C 252.128906 396.292969 246.757812 390.976562 240.710938 391.058594 Z M 329.710938 206.082031 C 335.757812 206.175781 341.132812 200.871094 341.144531 194.796875 C 341.152344 188.726562 335.785156 183.402344 329.738281 183.480469 C 323.859375 183.558594 318.742188 188.605469 318.566406 194.507812 C 318.386719 200.542969 323.628906 205.984375 329.710938 206.082031 Z M 418.632812 331.425781 C 412.699219 331.578125 407.71875 336.664062 407.707031 342.582031 C 407.695312 348.695312 413.03125 353.933594 419.113281 353.777344 C 425.046875 353.625 430.023438 348.542969 430.039062 342.621094 C 430.050781 336.507812 424.710938 331.269531 418.632812 331.425781 Z M 388.046875 235.375 C 394.039062 235.667969 399.515625 230.554688 399.734375 224.460938 C 399.945312 218.441406 394.777344 213.019531 388.695312 212.894531 C 382.652344 212.765625 377.3125 217.988281 377.269531 224.070312 C 377.226562 229.929688 382.140625 235.082031 388.046875 235.375 Z M 270.195312 205.882812 C 276.164062 205.863281 281.191406 200.855469 281.25 194.875 C 281.308594 188.917969 276.359375 183.816406 270.386719 183.679688 C 264.445312 183.542969 259.285156 188.441406 259.070312 194.425781 C 258.84375 200.566406 264.027344 205.90625 270.195312 205.882812 Z M 181.4375 332.042969 C 175.472656 331.902344 170.738281 336.382812 170.59375 342.308594 C 170.453125 348.277344 174.929688 353.019531 180.847656 353.160156 C 186.8125 353.304688 191.546875 348.820312 191.6875 342.898438 C 191.832031 336.925781 187.355469 332.1875 181.4375 332.042969 Z M 418.769531 264.273438 C 424.953125 264.324219 429.65625 259.648438 429.644531 253.464844 C 429.632812 247.492188 425.167969 242.878906 419.238281 242.707031 C 413.058594 242.53125 408.214844 247.117188 408.101562 253.253906 C 407.988281 259.441406 412.613281 264.222656 418.769531 264.273438 Z M 270.003906 421.121094 C 264.015625 421.195312 259.503906 425.84375 259.578125 431.871094 C 259.652344 437.867188 264.296875 442.378906 270.316406 442.304688 C 276.304688 442.230469 280.816406 437.582031 280.742188 431.558594 C 280.667969 425.5625 276.023438 421.046875 270.003906 421.121094 Z M 359.101562 205.5625 C 365.285156 205.601562 369.976562 200.914062 369.949219 194.726562 C 369.921875 188.554688 365.175781 183.90625 358.992188 184 C 353.050781 184.085938 348.503906 188.628906 348.40625 194.574219 C 348.304688 200.765625 352.941406 205.523438 359.101562 205.5625 Z M 240.804688 205.339844 C 246.761719 205.355469 251.367188 200.769531 251.382812 194.8125 C 251.398438 188.847656 246.820312 184.238281 240.867188 184.222656 C 234.910156 184.210938 230.304688 188.792969 230.289062 194.75 C 230.273438 200.714844 234.855469 205.324219 240.804688 205.339844 Z M 181.492188 302.519531 C 175.261719 302.355469 170.46875 306.960938 170.425781 313.160156 C 170.382812 319.191406 174.8125 323.8125 180.792969 323.972656 C 187.023438 324.140625 191.8125 319.535156 191.855469 313.335938 C 191.898438 307.304688 187.472656 302.683594 181.492188 302.519531 Z M 418.703125 362.414062 C 412.714844 362.492188 408.210938 367.148438 408.292969 373.175781 C 408.371094 379.171875 413.019531 383.679688 419.042969 383.597656 C 425.03125 383.515625 429.535156 378.863281 429.453125 372.835938 C 429.371094 366.839844 424.722656 362.332031 418.703125 362.414062 Z M 299.847656 420.929688 C 293.667969 420.753906 288.828125 425.339844 288.710938 431.480469 C 288.597656 437.664062 293.226562 442.445312 299.378906 442.496094 C 305.5625 442.546875 310.265625 437.875 310.253906 431.6875 C 310.242188 425.714844 305.78125 421.101562 299.847656 420.929688 Z M 330.140625 420.988281 C 323.902344 420.851562 319.152344 425.472656 319.140625 431.6875 C 319.128906 437.710938 323.585938 442.308594 329.570312 442.441406 C 335.804688 442.578125 340.558594 437.953125 340.570312 431.738281 C 340.582031 425.714844 336.121094 421.117188 330.140625 420.988281 Z M 211.75 234.8125 C 217.710938 234.703125 222.167969 230.152344 222.175781 224.160156 C 222.1875 217.945312 217.503906 213.347656 211.277344 213.460938 C 205.3125 213.566406 200.859375 218.121094 200.847656 224.113281 C 200.835938 230.328125 205.519531 234.925781 211.75 234.8125 Z M 181.507812 294.523438 C 187.464844 294.355469 191.871094 289.6875 191.761719 283.65625 C 191.652344 277.675781 187.046875 273.210938 181.035156 273.261719 C 175.042969 273.3125 170.535156 277.859375 170.523438 283.867188 C 170.511719 290.089844 175.265625 294.699219 181.507812 294.523438 Z M 388.300781 391.578125 C 382.164062 391.675781 377.570312 396.507812 377.730469 402.691406 C 377.886719 408.628906 382.480469 413.113281 388.441406 413.140625 C 394.625 413.171875 399.308594 408.476562 399.273438 402.289062 C 399.238281 396.121094 394.484375 391.480469 388.300781 391.578125 Z M 211.691406 391.875 C 206.015625 391.78125 201.273438 396.257812 201.042969 401.921875 C 200.800781 407.800781 205.460938 412.746094 211.335938 412.84375 C 217.007812 412.9375 221.753906 408.460938 221.984375 402.796875 C 222.222656 396.917969 217.5625 391.972656 211.691406 391.875 Z M 181.519531 263.929688 C 187.136719 263.714844 191.710938 258.847656 191.570312 253.242188 C 191.429688 247.617188 186.632812 242.984375 181.023438 243.050781 C 175.40625 243.117188 170.722656 247.855469 170.714844 253.476562 C 170.703125 259.300781 175.722656 264.152344 181.519531 263.929688 Z M 359.402344 421.234375 C 353.542969 421.109375 348.6875 425.882812 348.707031 431.75 C 348.726562 437.410156 353.300781 442.074219 358.953125 442.195312 C 364.8125 442.320312 369.667969 437.546875 369.648438 431.679688 C 369.628906 426.019531 365.054688 421.355469 359.402344 421.234375 Z M 388.328125 205.148438 C 393.855469 205.253906 398.753906 200.511719 398.859375 194.953125 C 398.964844 189.421875 394.226562 184.519531 388.671875 184.414062 C 383.148438 184.308594 378.25 189.050781 378.144531 194.609375 C 378.039062 200.140625 382.777344 205.042969 388.328125 205.148438 Z M 418.921875 234.503906 C 424.472656 234.472656 429.261719 229.628906 429.230469 224.085938 C 429.195312 218.53125 424.359375 213.734375 418.820312 213.769531 C 413.273438 213.800781 408.480469 218.644531 408.515625 224.1875 C 408.546875 229.742188 413.386719 234.539062 418.921875 234.503906 Z M 448.414062 332.496094 C 443.050781 332.363281 438.316406 336.839844 438.101562 342.253906 C 437.886719 347.632812 442.277344 352.402344 447.71875 352.699219 C 453.277344 353.003906 458.234375 348.308594 458.292969 342.691406 C 458.347656 337.292969 453.828125 332.628906 448.414062 332.496094 Z M 448.101562 302.957031 C 442.566406 303.023438 437.773438 307.972656 437.917969 313.472656 C 438.058594 318.820312 442.695312 323.433594 448.03125 323.535156 C 453.535156 323.640625 458.453125 318.8125 458.472656 313.28125 C 458.496094 307.761719 453.609375 302.894531 448.101562 302.957031 Z M 181.671875 362.746094 C 176.226562 362.40625 171.136719 367.058594 170.878906 372.605469 C 170.625 378.066406 175.339844 383.105469 180.871094 383.277344 C 186.152344 383.445312 190.964844 379.042969 191.378906 373.664062 C 191.796875 368.21875 187.238281 363.089844 181.671875 362.746094 Z M 241.015625 421.390625 C 235.539062 421.277344 230.636719 426.015625 230.523438 431.535156 C 230.410156 437.015625 235.144531 441.925781 240.65625 442.039062 C 246.132812 442.152344 251.035156 437.410156 251.148438 431.894531 C 251.261719 426.410156 246.527344 421.503906 241.015625 421.390625 Z M 300.425781 175.703125 C 305.921875 175.769531 310.808594 170.917969 310.792969 165.402344 C 310.777344 160.089844 306.230469 155.382812 300.898438 155.152344 C 295.4375 154.917969 290.417969 159.65625 290.265625 165.191406 C 290.117188 170.679688 294.902344 175.632812 300.425781 175.703125 Z M 329.730469 175.609375 C 335.242188 175.691406 340.113281 170.808594 340.027344 165.292969 C 339.941406 159.9375 335.328125 155.324219 329.980469 155.246094 C 324.46875 155.164062 319.59375 160.046875 319.683594 165.5625 C 319.769531 170.917969 324.378906 175.53125 329.730469 175.609375 Z M 448.410156 294.109375 C 453.761719 293.976562 458.371094 289.285156 458.402344 283.941406 C 458.433594 278.40625 453.496094 273.539062 447.984375 273.675781 C 442.632812 273.8125 438.019531 278.503906 437.988281 283.84375 C 437.957031 289.382812 442.898438 294.25 448.410156 294.109375 Z M 211.382812 204.757812 C 216.886719 204.832031 221.402344 200.429688 221.476562 194.910156 C 221.554688 189.402344 217.15625 184.882812 211.640625 184.808594 C 206.136719 184.730469 201.625 189.132812 201.546875 194.652344 C 201.472656 200.160156 205.871094 204.679688 211.382812 204.757812 Z M 270.019531 175.449219 C 275.496094 175.53125 280.085938 171.066406 280.171875 165.566406 C 280.253906 160.082031 275.792969 155.488281 270.300781 155.40625 C 264.820312 155.320312 260.230469 159.789062 260.148438 165.289062 C 260.0625 170.769531 264.527344 175.363281 270.019531 175.449219 Z M 388.367188 421.804688 C 382.832031 421.882812 378.527344 426.308594 378.605469 431.851562 C 378.679688 437.386719 383.105469 441.699219 388.636719 441.621094 C 394.167969 441.546875 398.476562 437.117188 398.398438 431.578125 C 398.324219 426.039062 393.898438 421.730469 388.367188 421.804688 Z M 419.082031 392.292969 C 413.6875 392.167969 409.023438 396.589844 408.816406 402.019531 C 408.605469 407.617188 413.308594 412.460938 418.925781 412.425781 C 424.34375 412.394531 428.878906 407.863281 428.929688 402.4375 C 428.976562 397.015625 424.511719 392.421875 419.082031 392.292969 Z M 181.28125 233.890625 C 186.914062 233.820312 191.089844 229.40625 190.886719 223.734375 C 190.691406 218.320312 186.457031 214.3125 181.003906 214.382812 C 175.5625 214.449219 171.457031 218.566406 171.398438 224.011719 C 171.332031 229.675781 175.621094 233.960938 181.28125 233.890625 Z M 358.949219 175.148438 C 364.605469 175.261719 368.902344 171.046875 368.886719 165.398438 C 368.875 159.949219 364.828125 155.816406 359.410156 155.707031 C 353.75 155.589844 349.453125 159.804688 349.46875 165.457031 C 349.480469 170.902344 353.527344 175.039062 358.949219 175.148438 Z M 447.710938 263.226562 C 453.378906 263.472656 457.8125 259.347656 457.925781 253.71875 C 458.035156 248.246094 454.085938 243.988281 448.683594 243.753906 C 443.011719 243.507812 438.578125 247.636719 438.464844 253.265625 C 438.355469 258.734375 442.308594 262.992188 447.710938 263.226562 Z M 299.390625 451.410156 C 293.9375 451.453125 289.851562 455.566406 289.832031 461.03125 C 289.8125 466.695312 294.152344 470.902344 299.835938 470.726562 C 305.246094 470.5625 309.238281 466.320312 309.132812 460.84375 C 309.027344 455.410156 304.851562 451.363281 299.390625 451.410156 Z M 240.992188 174.964844 C 246.359375 174.890625 250.4375 170.671875 250.363281 165.273438 C 250.289062 159.898438 246.074219 155.8125 240.683594 155.890625 C 235.3125 155.964844 231.234375 160.183594 231.308594 165.582031 C 231.382812 170.957031 235.597656 175.039062 240.992188 174.964844 Z M 448.148438 363.445312 C 442.726562 363.46875 438.625 367.617188 438.648438 373.054688 C 438.671875 378.480469 442.816406 382.585938 448.246094 382.5625 C 453.664062 382.542969 457.769531 378.390625 457.746094 372.957031 C 457.722656 367.53125 453.578125 363.421875 448.148438 363.445312 Z M 151.664062 303.667969 C 146.234375 303.742188 142.171875 307.941406 142.246094 313.402344 C 142.320312 318.835938 146.519531 322.902344 151.972656 322.828125 C 157.398438 322.753906 161.464844 318.550781 161.390625 313.09375 C 161.316406 307.660156 157.117188 303.59375 151.664062 303.667969 Z M 211.359375 422.175781 C 205.988281 422.25 201.910156 426.46875 201.984375 431.867188 C 202.058594 437.242188 206.273438 441.328125 211.667969 441.25 C 217.035156 441.175781 221.117188 436.957031 221.039062 431.558594 C 220.964844 426.183594 216.753906 422.101562 211.359375 422.175781 Z M 330.007812 451.488281 C 324.554688 451.414062 320.355469 455.480469 320.285156 460.914062 C 320.207031 466.375 324.273438 470.574219 329.699219 470.648438 C 335.152344 470.722656 339.351562 466.65625 339.425781 461.222656 C 339.5 455.761719 335.4375 451.5625 330.007812 451.488281 Z M 151.664062 293.421875 C 157.039062 293.5 161.261719 289.410156 161.339844 284.050781 C 161.414062 278.664062 157.328125 274.4375 151.972656 274.363281 C 146.597656 274.285156 142.375 278.375 142.296875 283.738281 C 142.222656 289.121094 146.308594 293.347656 151.664062 293.421875 Z M 181.378906 392.839844 C 175.964844 392.722656 171.6875 396.855469 171.632812 402.253906 C 171.582031 407.46875 175.488281 411.636719 180.644531 411.875 C 186.070312 412.121094 190.472656 408.097656 190.652344 402.726562 C 190.832031 397.304688 186.753906 392.957031 181.378906 392.839844 Z M 388.484375 174.792969 C 393.542969 174.804688 397.847656 170.511719 397.859375 165.445312 C 397.871094 160.382812 393.582031 156.070312 388.519531 156.058594 C 383.460938 156.046875 379.15625 160.339844 379.144531 165.40625 C 379.132812 170.472656 383.421875 174.78125 388.484375 174.792969 Z M 418.742188 204.261719 C 424.089844 204.332031 428.34375 200.128906 428.34375 194.78125 C 428.34375 189.640625 424.367188 185.488281 419.261719 185.300781 C 413.914062 185.101562 409.53125 189.199219 409.402344 194.523438 C 409.269531 199.875 413.414062 204.195312 418.742188 204.261719 Z M 151.859375 333.121094 C 146.511719 333.097656 142.300781 337.335938 142.347656 342.691406 C 142.390625 347.832031 146.398438 351.9375 151.515625 352.085938 C 156.855469 352.238281 161.203125 348.097656 161.289062 342.773438 C 161.378906 337.421875 157.199219 333.140625 151.859375 333.121094 Z M 447.789062 233.503906 C 452.8125 233.738281 457.316406 229.609375 457.554688 224.542969 C 457.789062 219.511719 453.664062 215.007812 448.601562 214.769531 C 443.578125 214.53125 439.078125 218.660156 438.839844 223.730469 C 438.601562 228.757812 442.730469 233.265625 447.789062 233.503906 Z M 359.535156 451.652344 C 354.449219 451.460938 350.039062 455.492188 349.777344 460.578125 C 349.503906 465.878906 353.777344 470.429688 359.082031 470.484375 C 364.179688 470.535156 368.460938 466.398438 368.582031 461.296875 C 368.707031 456.195312 364.625 451.847656 359.535156 451.652344 Z M 270.019531 451.550781 C 264.632812 451.621094 260.515625 455.921875 260.652344 461.339844 C 260.777344 466.519531 264.847656 470.53125 270.039062 470.585938 C 275.460938 470.648438 279.671875 466.476562 279.667969 461.058594 C 279.664062 455.644531 275.433594 451.480469 270.019531 451.550781 Z M 151.746094 262.847656 C 156.792969 262.890625 161.125 258.621094 161.167969 253.5625 C 161.210938 248.511719 156.945312 244.175781 151.886719 244.132812 C 146.84375 244.089844 142.511719 248.359375 142.46875 253.417969 C 142.425781 258.46875 146.691406 262.804688 151.746094 262.847656 Z M 151.753906 363.78125 C 146.964844 363.820312 142.726562 368 142.605469 372.804688 C 142.476562 377.78125 146.898438 382.269531 151.878906 382.226562 C 156.671875 382.1875 160.910156 378.011719 161.03125 373.203125 C 161.15625 368.230469 156.738281 363.742188 151.753906 363.78125 Z M 419.144531 422.4375 C 414.375 422.273438 410.03125 426.210938 409.628906 431.054688 C 409.222656 435.988281 413.308594 440.644531 418.34375 440.976562 C 423.277344 441.304688 427.890625 437.136719 428.140625 432.113281 C 428.386719 427.164062 424.148438 422.605469 419.144531 422.4375 Z M 240.800781 451.792969 C 235.800781 451.816406 231.464844 456.25 231.570312 461.234375 C 231.667969 466.039062 235.808594 470.210938 240.613281 470.34375 C 245.585938 470.484375 250.042969 466.171875 250.105469 461.164062 C 250.164062 456.171875 245.792969 451.769531 240.800781 451.792969 Z M 448.394531 393.203125 C 443.449219 393.074219 439.007812 397.460938 439.046875 402.421875 C 439.085938 407.183594 443.234375 411.398438 448 411.519531 C 452.941406 411.644531 457.386719 407.253906 457.34375 402.296875 C 457.304688 397.535156 453.15625 393.320312 448.394531 393.203125 Z M 211.738281 174.503906 C 216.554688 174.367188 220.640625 170.125 220.582031 165.332031 C 220.519531 160.519531 216.347656 156.371094 211.546875 156.351562 C 206.554688 156.328125 202.21875 160.824219 202.445312 165.785156 C 202.664062 170.613281 206.960938 174.640625 211.738281 174.503906 Z M 477.515625 304.128906 C 472.71875 304.128906 468.488281 308.308594 468.410156 313.121094 C 468.328125 318.113281 472.8125 322.539062 477.785156 322.367188 C 482.605469 322.203125 486.714844 317.902344 486.628906 313.113281 C 486.546875 308.304688 482.308594 304.125 477.515625 304.128906 Z M 181.332031 203.972656 C 186.105469 203.855469 190.277344 199.625 190.324219 194.851562 C 190.371094 189.894531 185.894531 185.46875 180.953125 185.589844 C 176.175781 185.707031 172.003906 189.9375 171.960938 194.710938 C 171.914062 199.667969 176.390625 204.09375 181.332031 203.972656 Z M 388.453125 452.132812 C 383.710938 452.160156 379.765625 455.976562 379.574219 460.722656 C 379.378906 465.65625 383.34375 469.878906 388.289062 470.003906 C 393.222656 470.128906 397.378906 466.101562 397.425781 461.152344 C 397.476562 456.199219 393.398438 452.105469 388.453125 452.132812 Z M 300.398438 144.011719 C 305.273438 144.089844 309.429688 140.050781 309.507812 135.15625 C 309.589844 130.277344 305.554688 126.117188 300.664062 126.035156 C 295.789062 125.957031 291.632812 129.996094 291.554688 134.890625 C 291.472656 139.769531 295.507812 143.929688 300.398438 144.011719 Z M 329.898438 143.902344 C 334.863281 143.878906 338.824219 139.816406 338.722656 134.851562 C 338.625 129.894531 334.496094 125.976562 329.550781 126.144531 C 324.800781 126.308594 321.03125 130.175781 320.984375 134.9375 C 320.9375 139.910156 324.929688 143.925781 329.898438 143.902344 Z M 477.648438 292.925781 C 482.527344 292.847656 486.621094 288.632812 486.542969 283.765625 C 486.464844 278.882812 482.25 274.78125 477.390625 274.859375 C 472.515625 274.9375 468.417969 279.15625 468.496094 284.023438 C 468.574219 288.90625 472.789062 293.003906 477.648438 292.925781 Z M 477.386719 333.722656 C 472.429688 333.800781 468.503906 337.910156 468.648438 342.867188 C 468.792969 347.621094 472.640625 351.414062 477.394531 351.480469 C 482.359375 351.550781 486.390625 347.570312 486.390625 342.597656 C 486.386719 337.625 482.347656 333.648438 477.386719 333.722656 Z M 448.425781 203.34375 C 453.308594 203.230469 456.859375 199.480469 456.746094 194.554688 C 456.636719 189.683594 452.867188 186.109375 447.96875 186.222656 C 443.105469 186.332031 439.53125 190.105469 439.644531 195.011719 C 439.753906 199.878906 443.523438 203.453125 448.425781 203.34375 Z M 477.75 262.113281 C 482.601562 262.003906 486.183594 258.277344 486.132812 253.390625 C 486.082031 248.527344 482.417969 244.882812 477.550781 244.867188 C 472.484375 244.851562 468.726562 248.753906 468.90625 253.847656 C 469.078125 258.6875 472.863281 262.222656 477.75 262.113281 Z M 211.609375 452.507812 C 206.707031 452.457031 203.011719 456.078125 202.960938 460.96875 C 202.910156 465.878906 206.527344 469.578125 211.414062 469.628906 C 216.316406 469.679688 220.015625 466.058594 220.0625 461.167969 C 220.113281 456.261719 216.5 452.558594 211.609375 452.507812 Z M 418.773438 173.988281 C 423.675781 174.039062 427.375 170.421875 427.425781 165.527344 C 427.472656 160.621094 423.859375 156.917969 418.972656 156.867188 C 414.070312 156.816406 410.371094 160.433594 410.320312 165.324219 C 410.269531 170.234375 413.882812 173.9375 418.773438 173.988281 Z M 359.40625 143.585938 C 364.269531 143.472656 367.839844 139.699219 367.730469 134.796875 C 367.617188 129.902344 363.875 126.351562 358.949219 126.464844 C 354.085938 126.574219 350.515625 130.347656 350.625 135.253906 C 350.738281 140.121094 354.507812 143.695312 359.40625 143.585938 Z M 152.058594 232.902344 C 156.875 232.78125 160.566406 228.992188 160.578125 224.15625 C 160.589844 219.121094 156.617188 215.242188 151.578125 215.367188 C 146.761719 215.488281 143.070312 219.277344 143.058594 224.113281 C 143.046875 229.148438 147.019531 233.03125 152.058594 232.902344 Z M 270.199219 143.792969 C 275.03125 143.773438 278.804688 140.074219 278.917969 135.246094 C 279.035156 130.203125 275.152344 126.234375 270.121094 126.257812 C 265.289062 126.277344 261.515625 129.976562 261.402344 134.800781 C 261.285156 139.84375 265.167969 143.8125 270.199219 143.792969 Z M 181.464844 422.988281 C 176.421875 422.824219 172.457031 426.617188 172.425781 431.648438 C 172.390625 436.492188 176.007812 440.28125 180.816406 440.441406 C 185.863281 440.605469 189.824219 436.808594 189.859375 431.777344 C 189.890625 426.933594 186.273438 423.144531 181.464844 422.988281 Z M 240.820312 143.449219 C 245.644531 143.457031 249.382812 139.617188 249.25 134.78125 C 249.125 130.164062 245.476562 126.609375 240.851562 126.601562 C 236.027344 126.59375 232.292969 130.433594 232.421875 135.269531 C 232.546875 139.882812 236.195312 143.4375 240.820312 143.449219 Z M 477.777344 364.511719 C 472.882812 364.382812 469.097656 368.003906 469.035156 372.878906 C 468.972656 377.777344 472.640625 381.5 477.523438 381.5 C 482.40625 381.496094 486.074219 377.765625 486.003906 372.871094 C 485.9375 368.199219 482.429688 364.632812 477.777344 364.511719 Z M 448.253906 423.363281 C 443.757812 423.328125 439.960938 427.019531 439.855469 431.523438 C 439.742188 436.226562 443.699219 440.183594 448.394531 440.066406 C 452.894531 439.953125 456.578125 436.144531 456.539062 431.644531 C 456.496094 427.132812 452.761719 423.398438 448.253906 423.363281 Z M 477.460938 232.445312 C 481.917969 232.480469 485.785156 228.664062 485.820312 224.195312 C 485.855469 219.734375 482.042969 215.863281 477.578125 215.824219 C 473.121094 215.789062 469.253906 219.609375 469.21875 224.078125 C 469.183594 228.539062 472.996094 232.410156 477.460938 232.445312 Z M 122.917969 292.296875 C 127.472656 292.078125 130.976562 288.3125 130.890625 283.730469 C 130.804688 279.152344 127.167969 275.539062 122.589844 275.488281 C 117.804688 275.433594 114.007812 279.265625 114.097656 284.054688 C 114.1875 288.832031 118.140625 292.527344 122.917969 292.296875 Z M 180.894531 173.738281 C 185.332031 173.882812 189.296875 170.144531 189.441406 165.675781 C 189.589844 161.230469 185.855469 157.261719 181.390625 157.117188 C 176.949219 156.972656 172.988281 160.707031 172.839844 165.179688 C 172.695312 169.621094 176.429688 173.589844 180.894531 173.738281 Z M 270.328125 483.082031 C 265.738281 482.992188 261.941406 486.585938 261.78125 491.171875 C 261.613281 495.96875 265.460938 499.914062 270.253906 499.859375 C 274.839844 499.808594 278.519531 496.101562 278.539062 491.507812 C 278.558594 486.914062 274.914062 483.175781 270.328125 483.082031 Z M 299.898438 483.007812 C 295.054688 482.796875 291.171875 486.375 291.03125 491.1875 C 290.890625 495.824219 294.246094 499.589844 298.808594 499.917969 C 303.65625 500.265625 307.65625 496.800781 307.929688 492.015625 C 308.207031 487.164062 304.691406 483.21875 299.898438 483.007812 Z M 122.921875 304.804688 C 118.0625 304.582031 114.148438 308.234375 114.0625 313.082031 C 113.976562 317.742188 117.449219 321.476562 122.066406 321.6875 C 126.925781 321.914062 130.839844 318.261719 130.925781 313.414062 C 131.011719 308.753906 127.539062 305.019531 122.921875 304.804688 Z M 330.238281 483.046875 C 325.414062 482.84375 321.507812 486.53125 321.441406 491.347656 C 321.375 495.976562 324.878906 499.699219 329.472656 499.894531 C 334.296875 500.097656 338.203125 496.410156 338.269531 491.59375 C 338.332031 486.964844 334.832031 483.242188 330.238281 483.046875 Z M 122.554688 334.238281 C 118.003906 334.203125 114.242188 337.855469 114.136719 342.410156 C 114.027344 347.171875 117.9375 351.082031 122.695312 350.96875 C 127.246094 350.859375 130.890625 347.085938 130.851562 342.53125 C 130.8125 337.972656 127.109375 334.269531 122.554688 334.238281 Z M 152.054688 393.851562 C 147.144531 393.734375 143.371094 397.363281 143.320312 402.253906 C 143.269531 406.964844 146.671875 410.625 151.320312 410.859375 C 156.234375 411.109375 160.136719 407.582031 160.316406 402.726562 C 160.5 397.808594 156.921875 393.96875 152.054688 393.851562 Z M 418.929688 452.757812 C 414.472656 452.722656 410.605469 456.539062 410.570312 461.011719 C 410.535156 465.472656 414.351562 469.34375 418.816406 469.378906 C 423.269531 469.414062 427.140625 465.59375 427.171875 461.125 C 427.207031 456.664062 423.394531 452.792969 418.929688 452.757812 Z M 388.582031 143.320312 C 393.019531 143.269531 396.839844 139.371094 396.789062 134.941406 C 396.742188 130.5 392.847656 126.675781 388.421875 126.726562 C 383.980469 126.777344 380.164062 130.675781 380.214844 135.105469 C 380.261719 139.550781 384.15625 143.371094 388.582031 143.320312 Z M 122.433594 261.734375 C 126.832031 261.773438 130.777344 257.820312 130.730469 253.417969 C 130.6875 249.210938 127.03125 245.433594 122.8125 245.246094 C 118.441406 245.050781 114.375 248.878906 114.257812 253.300781 C 114.140625 257.699219 118.019531 261.699219 122.433594 261.734375 Z M 151.617188 203.042969 C 156.027344 203.167969 160.027344 199.292969 160.074219 194.851562 C 160.117188 190.433594 156.171875 186.480469 151.757812 186.519531 C 147.535156 186.554688 143.757812 190.210938 143.5625 194.449219 C 143.363281 198.847656 147.179688 202.921875 151.617188 203.042969 Z M 359.28125 483.183594 C 354.816406 483.121094 350.882812 487.027344 350.898438 491.5 C 350.917969 495.761719 354.546875 499.546875 358.816406 499.757812 C 363.246094 499.976562 367.316406 496.183594 367.457031 491.703125 C 367.59375 487.25 363.753906 483.246094 359.28125 483.183594 Z M 122.441406 364.910156 C 118.214844 364.941406 114.453125 368.695312 114.40625 372.929688 C 114.359375 377.148438 118.050781 380.972656 122.289062 381.101562 C 126.699219 381.230469 130.695312 377.238281 130.582031 372.820312 C 130.46875 368.582031 126.660156 364.878906 122.441406 364.910156 Z M 240.726562 483.335938 C 236.492188 483.40625 232.722656 487.21875 232.710938 491.449219 C 232.699219 495.882812 236.820312 499.839844 241.207031 499.605469 C 245.457031 499.375 249.105469 495.433594 248.960938 491.230469 C 248.8125 486.984375 244.941406 483.269531 240.726562 483.335938 Z M 477.691406 394.226562 C 473.484375 394.121094 469.582031 397.804688 469.394531 402.054688 C 469.203125 406.460938 473.179688 410.550781 477.609375 410.492188 C 481.839844 410.4375 485.617188 406.636719 485.644531 402.402344 C 485.671875 398.175781 481.933594 394.332031 477.691406 394.226562 Z M 151.625 423.765625 C 147.277344 423.878906 143.683594 427.714844 143.875 432.039062 C 144.058594 436.1875 147.609375 439.625 151.75 439.664062 C 156.09375 439.703125 159.796875 436 159.757812 431.648438 C 159.722656 427.296875 155.957031 423.648438 151.625 423.765625 Z M 211.640625 143.050781 C 215.921875 142.972656 219.609375 139.160156 219.53125 134.894531 C 219.453125 130.609375 215.644531 126.921875 211.382812 127 C 207.105469 127.078125 203.417969 130.886719 203.496094 135.152344 C 203.574219 139.4375 207.382812 143.128906 211.640625 143.050781 Z M 448.242188 173.257812 C 452.484375 173.230469 455.902344 169.886719 456.015625 165.640625 C 456.140625 161.191406 452.597656 157.570312 448.148438 157.597656 C 443.90625 157.621094 440.488281 160.96875 440.375 165.210938 C 440.253906 169.660156 443.796875 173.28125 448.242188 173.257812 Z M 506.996094 305.417969 C 502.757812 305.335938 499.25 308.597656 499.027344 312.832031 C 498.792969 317.273438 502.246094 320.988281 506.691406 321.078125 C 510.929688 321.160156 514.4375 317.898438 514.660156 313.664062 C 514.894531 309.21875 511.441406 305.503906 506.996094 305.417969 Z M 181.347656 453.117188 C 177.015625 452.996094 173.246094 456.636719 173.199219 460.992188 C 173.15625 465.339844 176.851562 469.050781 181.195312 469.019531 C 185.546875 468.984375 189.195312 465.222656 189.082031 460.882812 C 188.976562 456.734375 185.492188 453.238281 181.347656 453.117188 Z M 122.820312 231.753906 C 127.136719 231.589844 130.203125 228.296875 130.105469 223.9375 C 130.003906 219.613281 126.765625 216.484375 122.425781 216.519531 C 118.097656 216.554688 114.917969 219.738281 114.882812 224.074219 C 114.851562 228.613281 118.273438 231.925781 122.820312 231.753906 Z M 506.890625 291.601562 C 511.375 291.574219 514.707031 288.085938 514.542969 283.585938 C 514.386719 279.320312 511.082031 276.160156 506.796875 276.1875 C 502.507812 276.210938 499.25 279.402344 499.144531 283.683594 C 499.03125 288.179688 502.40625 291.628906 506.890625 291.601562 Z M 300.742188 113.378906 C 305.210938 113.265625 308.472656 109.699219 308.222656 105.199219 C 307.988281 100.949219 304.609375 97.855469 300.320312 97.960938 C 296.042969 98.070312 292.855469 101.328125 292.832031 105.621094 C 292.804688 110.113281 296.25 113.488281 300.742188 113.378906 Z M 329.734375 113.289062 C 334.082031 113.347656 337.339844 110.246094 337.464844 105.917969 C 337.589844 101.566406 334.53125 98.238281 330.234375 98.050781 C 325.6875 97.851562 322.238281 101.144531 322.242188 105.679688 C 322.25 110.015625 325.410156 113.226562 329.734375 113.289062 Z M 389 483.773438 C 384.503906 483.507812 380.929688 486.761719 380.800781 491.230469 C 380.679688 495.527344 383.757812 498.917969 388.003906 499.167969 C 392.5 499.433594 396.074219 496.179688 396.199219 491.710938 C 396.324219 487.414062 393.246094 484.023438 389 483.773438 Z M 506.652344 334.984375 C 502.332031 335.078125 499.203125 338.320312 499.234375 342.664062 C 499.265625 347 502.445312 350.183594 506.773438 350.21875 C 511.308594 350.257812 514.621094 346.832031 514.453125 342.28125 C 514.292969 337.960938 511.007812 334.886719 506.652344 334.984375 Z M 447.941406 453.636719 C 443.855469 453.765625 440.773438 456.957031 440.773438 461.0625 C 440.769531 465.375 444.136719 468.632812 448.453125 468.5 C 452.535156 468.371094 455.617188 465.179688 455.621094 461.074219 C 455.621094 456.765625 452.253906 453.503906 447.941406 453.636719 Z M 122.59375 394.890625 C 118.472656 394.84375 115.277344 397.792969 115.039062 401.871094 C 114.789062 406.199219 117.863281 409.644531 122.136719 409.828125 C 126.460938 410.011719 129.835938 406.886719 129.953125 402.589844 C 130.070312 398.257812 126.902344 394.945312 122.59375 394.890625 Z M 211.15625 483.988281 C 207.054688 484.15625 204.054688 487.296875 204.035156 491.433594 C 204.019531 495.785156 207.257812 499.003906 211.605469 498.957031 C 215.941406 498.90625 219.105469 495.605469 218.988281 491.246094 C 218.875 486.929688 215.507812 483.808594 211.15625 483.988281 Z M 506.863281 260.957031 C 511.179688 260.949219 514.378906 257.671875 514.304688 253.34375 C 514.230469 249.230469 511.183594 246.140625 507.085938 246.023438 C 502.757812 245.898438 499.441406 249.0625 499.382812 253.378906 C 499.324219 257.707031 502.542969 260.96875 506.863281 260.957031 Z M 477.316406 202.324219 C 481.675781 202.425781 484.953125 199.320312 485.054688 194.984375 C 485.15625 190.621094 482.054688 187.339844 477.722656 187.238281 C 473.363281 187.136719 470.085938 190.242188 469.984375 194.578125 C 469.882812 198.945312 472.984375 202.222656 477.316406 202.324219 Z M 151.714844 172.804688 C 155.785156 172.859375 159.070312 169.71875 159.191406 165.660156 C 159.308594 161.585938 156.222656 158.234375 152.179688 158.046875 C 148.109375 157.859375 144.707031 160.890625 144.453125 164.933594 C 144.183594 169.21875 147.445312 172.75 151.714844 172.804688 Z M 359.207031 113.101562 C 363.308594 113.085938 366.484375 109.992188 366.601562 105.902344 C 366.722656 101.585938 363.457031 98.222656 359.148438 98.238281 C 355.046875 98.253906 351.871094 101.34375 351.753906 105.4375 C 351.632812 109.753906 354.902344 113.117188 359.207031 113.101562 Z M 419.074219 142.546875 C 423.386719 142.449219 426.488281 139.171875 426.390625 134.824219 C 426.289062 130.503906 423.015625 127.398438 418.671875 127.5 C 414.355469 127.601562 411.253906 130.875 411.355469 135.222656 C 411.457031 139.542969 414.730469 142.648438 419.074219 142.546875 Z M 270.144531 113.210938 C 274.503906 113.21875 277.6875 110.046875 277.695312 105.683594 C 277.703125 101.320312 274.535156 98.136719 270.175781 98.125 C 265.816406 98.117188 262.632812 101.292969 262.625 105.652344 C 262.617188 110.015625 265.789062 113.203125 270.144531 113.210938 Z M 507.015625 365.625 C 502.949219 365.535156 499.628906 368.648438 499.472656 372.703125 C 499.308594 376.984375 502.65625 380.433594 506.933594 380.382812 C 511.003906 380.335938 514.191406 377.125 514.214844 373.046875 C 514.238281 368.96875 511.082031 365.714844 507.015625 365.625 Z M 477.628906 424.347656 C 473.386719 424.289062 470.007812 427.75 470.160156 431.996094 C 470.308594 436.023438 473.636719 439.160156 477.671875 439.082031 C 481.710938 439 484.890625 435.742188 484.878906 431.691406 C 484.867188 427.644531 481.667969 424.40625 477.628906 424.347656 Z M 181.105469 142.320312 C 185.03125 142.339844 188.410156 138.992188 188.429688 135.058594 C 188.449219 131.132812 185.105469 127.75 181.175781 127.726562 C 177.253906 127.707031 173.875 131.054688 173.855469 134.988281 C 173.832031 138.917969 177.179688 142.300781 181.105469 142.320312 Z M 240.871094 113 C 244.855469 112.976562 248.175781 109.621094 248.15625 105.632812 C 248.136719 101.648438 244.78125 98.320312 240.800781 98.339844 C 236.816406 98.363281 233.496094 101.71875 233.515625 105.707031 C 233.535156 109.691406 236.890625 113.019531 240.871094 113 Z M 299.371094 513.53125 C 295.441406 513.59375 292.132812 517.011719 292.195312 520.9375 C 292.257812 524.871094 295.671875 528.1875 299.597656 528.121094 C 303.527344 528.058594 306.835938 524.640625 306.773438 520.714844 C 306.707031 516.777344 303.292969 513.464844 299.371094 513.53125 Z M 506.90625 231.328125 C 510.589844 231.289062 513.914062 228.023438 514.027344 224.332031 C 514.144531 220.460938 510.65625 216.90625 506.777344 216.945312 C 503.097656 216.984375 499.773438 220.25 499.660156 223.941406 C 499.542969 227.8125 503.03125 231.367188 506.90625 231.328125 Z M 93.015625 276.683594 C 88.808594 276.992188 86.328125 279.464844 85.972656 283.664062 C 85.644531 287.539062 89.164062 291.082031 93.070312 291.140625 C 96.972656 291.199219 100.429688 287.773438 100.410156 283.863281 C 100.394531 279.953125 96.894531 276.402344 93.015625 276.683594 Z M 359.402344 513.734375 C 355.746094 513.605469 352.308594 516.773438 352.097656 520.472656 C 351.875 524.332031 355.324219 527.9375 359.214844 527.914062 C 362.921875 527.894531 366.203125 524.636719 366.261719 520.917969 C 366.316406 517.222656 363.117188 513.871094 359.402344 513.734375 Z M 329.894531 513.542969 C 325.988281 513.519531 322.601562 516.875 322.582031 520.785156 C 322.558594 524.695312 325.90625 528.085938 329.816406 528.109375 C 333.71875 528.132812 337.105469 524.777344 337.128906 520.863281 C 337.152344 516.957031 333.800781 513.566406 329.894531 513.542969 Z M 151.996094 453.953125 C 148.320312 453.847656 144.898438 457.046875 144.710938 460.757812 C 144.519531 464.640625 148 468.234375 151.898438 468.183594 C 155.617188 468.132812 158.894531 464.835938 158.925781 461.117188 C 158.953125 457.40625 155.71875 454.0625 151.996094 453.953125 Z M 92.207031 335.433594 C 88.355469 335.378906 84.855469 338.925781 84.960938 342.777344 C 85.0625 346.457031 88.367188 349.71875 92.039062 349.769531 C 95.894531 349.824219 99.390625 346.277344 99.285156 342.425781 C 99.183594 338.75 95.878906 335.484375 92.207031 335.433594 Z M 418.519531 484.265625 C 414.347656 484.707031 411.894531 487.210938 411.671875 491.441406 C 411.46875 495.339844 415.066406 498.777344 418.96875 498.71875 C 422.875 498.660156 426.246094 495.132812 426.113281 491.242188 C 425.980469 487.335938 422.363281 483.855469 418.519531 484.265625 Z M 92.78125 260.519531 C 96.46875 260.753906 99.953125 257.628906 100.191406 253.882812 C 100.425781 250.191406 97.304688 246.699219 93.5625 246.460938 C 89.875 246.230469 86.386719 249.351562 86.148438 253.097656 C 85.917969 256.789062 89.039062 260.28125 92.78125 260.519531 Z M 122.441406 201.988281 C 126.121094 202.015625 129.507812 198.796875 129.691406 195.09375 C 129.882812 191.226562 126.445312 187.609375 122.546875 187.578125 C 118.867188 187.546875 115.480469 190.765625 115.296875 194.46875 C 115.109375 198.335938 118.546875 201.953125 122.441406 201.988281 Z M 388.644531 112.839844 C 392.320312 112.753906 395.59375 109.460938 395.664062 105.785156 C 395.734375 101.933594 392.199219 98.414062 388.355469 98.5 C 384.683594 98.585938 381.410156 101.878906 381.339844 105.554688 C 381.269531 109.402344 384.804688 112.925781 388.644531 112.839844 Z M 92.015625 306.039062 C 87.800781 306.3125 85.3125 308.777344 84.925781 312.96875 C 84.566406 316.835938 88.066406 320.40625 91.972656 320.496094 C 95.871094 320.582031 99.351562 317.179688 99.363281 313.269531 C 99.375 309.355469 95.90625 305.785156 92.015625 306.039062 Z M 270.128906 513.621094 C 266.441406 513.640625 263.097656 516.894531 262.964844 520.59375 C 262.824219 524.476562 266.296875 528.050781 270.191406 528.03125 C 273.878906 528.011719 277.222656 524.757812 277.355469 521.054688 C 277.496094 517.175781 274.023438 513.601562 270.128906 513.621094 Z M 477.128906 172.347656 C 480.878906 172.578125 484.433594 169.472656 484.390625 165.6875 C 484.347656 161.671875 482.171875 159.148438 478.160156 158.585938 C 474.425781 158.058594 470.9375 161.097656 470.628906 164.910156 C 470.328125 168.652344 473.355469 172.117188 477.128906 172.347656 Z M 92.425781 366.253906 C 88.566406 365.941406 85.257812 369.085938 85.382812 372.960938 C 85.515625 377.027344 87.769531 379.414062 91.820312 379.753906 C 95.679688 380.074219 98.871094 376.929688 98.898438 372.785156 C 98.589844 369.015625 96.492188 366.585938 92.425781 366.253906 Z M 506.972656 395.359375 C 503.25 395.28125 499.929688 398.484375 499.851562 402.230469 C 499.773438 405.957031 502.972656 409.28125 506.714844 409.359375 C 510.4375 409.4375 513.757812 406.234375 513.835938 402.488281 C 513.914062 398.761719 510.714844 395.4375 506.972656 395.359375 Z M 181.324219 484.589844 C 177.566406 484.300781 174.261719 487.625 174.226562 491.414062 C 174.195312 495.203125 177.4375 498.4375 181.214844 498.394531 C 185 498.347656 188.316406 495.027344 188.015625 491.269531 C 187.699219 487.253906 185.339844 484.894531 181.324219 484.589844 Z M 447.558594 141.828125 C 451.3125 142.339844 454.746094 139.351562 455.046875 135.539062 C 455.34375 131.777344 452.367188 128.367188 448.585938 128.140625 C 444.824219 127.917969 441.328125 130.976562 441.363281 134.765625 C 441.402344 138.769531 443.542969 141.285156 447.558594 141.828125 Z M 241.222656 513.945312 C 237.464844 513.71875 233.964844 516.777344 234.003906 520.566406 C 234.039062 524.570312 236.183594 527.085938 240.195312 527.628906 C 243.953125 528.140625 247.386719 525.152344 247.6875 521.339844 C 247.984375 517.578125 245.007812 514.167969 241.222656 513.945312 Z M 211.632812 112.550781 C 215.429688 112.480469 218.53125 109.199219 218.386719 105.417969 C 218.238281 101.628906 214.878906 98.433594 211.136719 98.824219 C 207.144531 99.242188 204.855469 101.636719 204.675781 105.664062 C 204.503906 109.453125 207.847656 112.621094 211.632812 112.550781 Z M 122.480469 424.832031 C 118.453125 425.027344 116.046875 427.34375 115.617188 431.339844 C 115.21875 435.074219 118.464844 438.488281 122.246094 438.632812 C 126.011719 438.78125 129.339844 435.621094 129.40625 431.832031 C 129.476562 428.050781 126.257812 424.644531 122.480469 424.832031 Z M 388.753906 514.328125 C 384.660156 514.21875 382.164062 516.453125 382.019531 520.574219 C 381.878906 524.667969 384.132812 527.160156 388.25 527.316406 C 392.371094 527.476562 394.578125 525.125 395.117188 520.855469 C 394.796875 517.09375 392.941406 514.441406 388.753906 514.328125 Z M 418.90625 112.054688 C 422.808594 111.925781 425.007812 109.789062 425.25 105.894531 C 425.480469 102.121094 422.605469 99.242188 418.835938 99.261719 C 415.285156 99.277344 412.582031 101.90625 412.472656 105.445312 C 412.351562 109.226562 415.140625 112.179688 418.90625 112.054688 Z M 92.1875 396.121094 C 88.28125 396.101562 85.9375 398.390625 85.898438 402.296875 C 85.855469 406.203125 88.15625 408.535156 92.0625 408.597656 C 96.007812 408.660156 97.992188 406.230469 98.488281 402.429688 C 98.070312 398.601562 96.132812 396.140625 92.1875 396.121094 Z M 448.355469 485.09375 C 444.609375 484.921875 441.667969 487.824219 441.832031 491.570312 C 442 495.460938 444.152344 497.640625 448.039062 497.84375 C 451.78125 498.039062 454.636719 495.125 454.574219 490.664062 C 454.226562 487.570312 452.28125 485.277344 448.355469 485.09375 Z M 507.734375 201.289062 C 511.796875 200.96875 514.261719 198.953125 514.28125 194.785156 C 514.300781 190.921875 512.132812 188.578125 508.28125 188.394531 C 504.195312 188.199219 501.679688 190.382812 501.507812 194.519531 C 501.335938 198.664062 503.71875 200.8125 507.734375 201.289062 Z M 152.042969 141.398438 C 155.964844 141.179688 157.890625 138.867188 158.273438 135.074219 C 157.933594 131.246094 156.027344 128.914062 152.113281 128.648438 C 148.367188 128.394531 145.445312 131.246094 145.429688 134.988281 C 145.410156 138.746094 148.289062 141.613281 152.042969 141.398438 Z M 329.175781 82.667969 C 332.894531 83.03125 336.09375 80.417969 336.199219 76.734375 C 336.3125 72.878906 334.371094 70.496094 330.527344 69.988281 C 326.828125 69.5 323.703125 72.21875 323.484375 75.894531 C 323.273438 79.410156 325.730469 82.332031 329.175781 82.667969 Z M 537.300781 290.265625 C 541.1875 290.105469 543.367188 287.953125 543.578125 284.066406 C 543.78125 280.3125 540.875 277.453125 537.125 277.496094 C 533.597656 277.539062 530.910156 280.195312 530.824219 283.71875 C 530.734375 287.476562 533.558594 290.417969 537.300781 290.265625 Z M 122.667969 171.839844 C 126.433594 171.355469 128.8125 169.375 128.789062 165.421875 C 128.761719 161.515625 126.523438 159.308594 122.621094 159.105469 C 118.886719 158.914062 115.921875 161.957031 116.175781 165.691406 C 116.445312 169.628906 118.800781 171.527344 122.667969 171.839844 Z M 211.726562 514.421875 C 207.859375 514.722656 205.398438 516.609375 205.234375 520.53125 C 205.074219 524.421875 207.222656 526.742188 211.089844 527.132812 C 214.789062 527.507812 217.902344 524.574219 217.820312 520.859375 C 217.734375 516.917969 215.46875 514.929688 211.726562 514.421875 Z M 300.316406 82.6875 C 304.070312 82.914062 306.941406 80.027344 306.914062 75.5625 C 306.597656 72.464844 304.667969 70.15625 300.746094 69.9375 C 296.992188 69.730469 294.035156 72.605469 294.164062 76.359375 C 294.296875 80.253906 296.433594 82.449219 300.316406 82.6875 Z M 270.097656 82.628906 C 274.035156 82.558594 276.03125 80.296875 276.554688 76.5625 C 276.273438 72.679688 274.394531 70.210938 270.476562 70.03125 C 266.597656 69.851562 264.269531 71.996094 263.863281 75.867188 C 263.472656 79.570312 266.386719 82.699219 270.097656 82.628906 Z M 93.09375 230.546875 C 97.265625 230.613281 99.324219 228.140625 99.691406 224.082031 C 99.265625 220.023438 97.152344 217.625 92.988281 217.71875 C 89.117188 217.804688 86.847656 220.054688 86.765625 223.929688 C 86.679688 228.054688 88.949219 230.484375 93.09375 230.546875 Z M 536.796875 306.714844 C 533.191406 307.308594 530.664062 309.273438 530.820312 313.476562 C 530.960938 317.339844 533.199219 319.585938 537.058594 319.640625 C 541.171875 319.695312 543.5625 317.40625 543.597656 313.273438 C 543.632812 309.109375 541.152344 307.082031 536.796875 306.714844 Z M 477.78125 454.546875 C 473.691406 454.808594 471.179688 456.792969 471.109375 460.976562 C 471.039062 464.847656 473.175781 467.238281 477.039062 467.472656 C 481.132812 467.71875 483.699219 465.570312 483.921875 461.417969 C 484.144531 457.277344 481.796875 455.066406 477.78125 454.546875 Z M 507.027344 425.484375 C 503.136719 425.390625 500.742188 427.648438 500.625 431.53125 C 500.511719 435.421875 502.777344 437.804688 506.660156 437.941406 C 510.589844 438.082031 512.617188 435.679688 513.195312 431.929688 C 512.851562 428.078125 510.949219 425.582031 507.027344 425.484375 Z M 537.5 336.285156 C 533.566406 336.230469 531.484375 338.417969 530.921875 341.585938 C 530.667969 345.699219 533.195312 348.746094 536.671875 348.902344 C 540.546875 349.074219 542.953125 347.132812 543.492188 343.273438 C 544.003906 339.578125 541.199219 336.339844 537.5 336.285156 Z M 418.765625 514.65625 C 415.203125 515.21875 412.828125 517.171875 412.835938 520.816406 C 412.839844 524.441406 415.128906 526.609375 418.738281 526.910156 C 422.03125 527.1875 425.289062 523.859375 424.953125 520.578125 C 424.582031 516.957031 422.332031 515.058594 418.765625 514.65625 Z M 152.179688 485.386719 C 148.929688 484.964844 145.542969 488.1875 145.734375 491.496094 C 145.949219 495.148438 148.164062 497.085938 151.726562 497.644531 C 155.292969 497.230469 157.707031 495.324219 157.855469 491.703125 C 158.003906 488.066406 155.746094 485.851562 152.179688 485.386719 Z M 93.074219 200.851562 C 96.71875 200.71875 98.683594 198.527344 99.261719 195.269531 C 99.402344 191.9375 96.628906 188.722656 93.527344 188.714844 C 89.886719 188.703125 87.65625 190.753906 87.121094 194.300781 C 86.636719 197.53125 89.769531 200.972656 93.074219 200.851562 Z M 180.992188 111.835938 C 184.910156 111.953125 186.921875 109.484375 187.480469 105.429688 C 186.871094 101.964844 184.96875 99.441406 181.03125 99.496094 C 177.402344 99.542969 175.113281 101.78125 174.980469 105.390625 C 174.839844 109.273438 177.121094 111.71875 180.992188 111.835938 Z M 329.976562 544.253906 C 326.367188 544.195312 324.019531 546.464844 323.941406 550.058594 C 323.859375 553.667969 326.140625 556.011719 329.734375 556.101562 C 333.359375 556.191406 335.335938 553.851562 335.917969 550.117188 C 335.433594 546.78125 333.617188 544.3125 329.976562 544.253906 Z M 299.613281 544.238281 C 295.996094 544.152344 293.644531 546.445312 293.546875 550.050781 C 293.449219 553.691406 295.800781 555.675781 299.386719 556.25 C 302.929688 555.839844 305.34375 553.941406 305.421875 550.3125 C 305.496094 546.6875 303.214844 544.328125 299.613281 544.238281 Z M 358.777344 82.480469 C 362.652344 82.707031 365.136719 80.453125 365.335938 76.585938 C 365.535156 72.667969 363.097656 70.613281 359.328125 70.007812 C 355.523438 70.429688 353.046875 72.371094 353.011719 76.300781 C 352.972656 79.945312 355.191406 82.269531 358.777344 82.480469 Z M 477.382812 140.964844 C 481.023438 141.066406 483.007812 138.714844 483.582031 135.128906 C 483.175781 131.578125 481.28125 129.160156 477.65625 129.082031 C 474.035156 129 471.675781 131.285156 471.585938 134.886719 C 471.496094 138.511719 473.78125 140.867188 477.382812 140.964844 Z M 537.25 259.667969 C 541.1875 259.664062 543.125 257.144531 543.527344 253.316406 C 542.914062 249.53125 540.855469 247.132812 536.921875 247.308594 C 533.300781 247.46875 531.054688 249.746094 531.039062 253.394531 C 531.023438 257.296875 533.351562 259.671875 537.25 259.667969 Z M 537.148438 366.765625 C 533.550781 367.308594 531.152344 369.226562 531.121094 372.867188 C 531.089844 376.742188 533.464844 379.136719 537.335938 379.101562 C 540.941406 379.070312 543.246094 376.753906 543.308594 373.144531 C 543.375 369.230469 540.886719 367.242188 537.148438 366.765625 Z M 122.601562 454.859375 C 119.042969 455.238281 116.605469 457.125 116.425781 460.703125 C 116.230469 464.550781 118.554688 467.0625 122.386719 467.136719 C 126.226562 467.210938 128.605469 464.769531 128.566406 460.921875 C 128.53125 457.308594 126.128906 455.390625 122.601562 454.859375 Z M 241.066406 82.480469 C 244.617188 81.832031 246.972656 79.84375 246.875 76.191406 C 246.777344 72.582031 244.464844 70.441406 240.839844 70.230469 C 237.539062 70.039062 234.335938 73.449219 234.757812 76.699219 C 235.222656 80.292969 237.492188 82.171875 241.066406 82.480469 Z M 62.507812 289.703125 C 66.117188 289.851562 68.484375 287.664062 68.597656 284.058594 C 68.714844 280.429688 66.414062 278.449219 62.820312 277.976562 C 59.261719 278.40625 56.972656 280.347656 56.992188 283.984375 C 57.007812 287.355469 59.167969 289.566406 62.507812 289.703125 Z M 447.96875 111.375 C 451.632812 111.484375 453.605469 109.269531 453.984375 105.699219 C 453.644531 102.246094 451.820312 100.058594 448.421875 99.964844 C 444.769531 99.867188 442.519531 102.039062 442.496094 105.699219 C 442.476562 109.105469 444.582031 111.273438 447.96875 111.375 Z M 507.394531 171.109375 C 511.058594 171.390625 513.125 169.28125 513.679688 165.632812 C 513.46875 162.296875 511.804688 159.996094 508.386719 159.742188 C 504.726562 159.472656 502.390625 161.539062 502.195312 165.183594 C 502.015625 168.566406 503.988281 170.847656 507.394531 171.109375 Z M 537.226562 230.050781 C 540.8125 229.589844 543.082031 227.621094 543.023438 223.988281 C 542.964844 220.621094 540.796875 218.425781 537.449219 218.324219 C 533.835938 218.214844 531.488281 220.417969 531.414062 224.03125 C 531.339844 227.660156 533.660156 229.613281 537.226562 230.050781 Z M 181.386719 515.148438 C 177.933594 515.011719 175.660156 517 175.480469 520.453125 C 175.292969 524.15625 177.421875 526.464844 181.15625 526.5 C 184.625 526.527344 186.507812 524.386719 186.890625 520.894531 C 186.632812 517.5 184.855469 515.289062 181.386719 515.148438 Z M 62.8125 307.410156 C 59.433594 307.363281 57.183594 309.507812 56.976562 312.851562 C 56.753906 316.484375 58.9375 318.894531 62.53125 319.074219 C 66.160156 319.257812 68.191406 316.96875 68.738281 313.332031 C 68.355469 309.796875 66.449219 307.453125 62.8125 307.410156 Z M 270.203125 544.261719 C 266.660156 544.671875 264.359375 546.597656 264.351562 550.230469 C 264.34375 553.605469 266.488281 555.828125 269.828125 555.988281 C 273.4375 556.164062 275.820312 553.988281 275.957031 550.382812 C 276.097656 546.761719 273.8125 544.757812 270.203125 544.261719 Z M 388.234375 82.117188 C 391.851562 82.300781 393.882812 80.035156 394.433594 76.261719 C 393.992188 72.921875 392.171875 70.527344 388.515625 70.496094 C 385.144531 70.46875 382.90625 72.582031 382.703125 75.921875 C 382.484375 79.542969 384.648438 81.941406 388.234375 82.117188 Z M 63.15625 336.898438 C 59.519531 336.722656 57.203125 338.832031 57.101562 342.5 C 57.003906 345.90625 59.0625 348.128906 62.441406 348.304688 C 66.089844 348.492188 68.136719 346.339844 68.585938 342.703125 C 68.320312 339.3125 66.546875 337.066406 63.15625 336.898438 Z M 92.105469 426.101562 C 88.652344 426.121094 86.554688 428.152344 86.527344 431.605469 C 86.496094 435.328125 88.703125 437.441406 92.398438 437.316406 C 95.863281 437.199219 97.585938 434.984375 97.804688 431.605469 C 97.425781 428.144531 95.570312 426.085938 92.105469 426.101562 Z M 359.457031 544.578125 C 355.761719 544.449219 353.554688 546.5625 353.578125 550.289062 C 353.601562 553.757812 355.738281 555.558594 359.171875 555.871094 C 362.574219 555.582031 364.703125 553.800781 364.785156 550.332031 C 364.863281 546.882812 362.90625 544.703125 359.457031 544.578125 Z M 447.898438 515.480469 C 444.777344 515.921875 442.863281 517.640625 442.9375 520.929688 C 443.015625 524.195312 444.910156 526.097656 448.171875 526.082031 C 451.710938 526.058594 453.613281 523.964844 453.441406 520.464844 C 453.277344 517.183594 451.171875 515.636719 447.898438 515.480469 Z M 506.765625 455.636719 C 503.5 455.6875 501.5625 457.492188 501.429688 460.761719 C 501.289062 464.253906 503.117188 466.378906 506.664062 466.488281 C 510.199219 466.59375 512.035156 464.609375 512.355469 460.878906 C 512.023438 457.703125 510.367188 455.582031 506.765625 455.636719 Z M 62.566406 367.65625 C 59.277344 367.75 57.449219 369.695312 57.449219 372.980469 C 57.453125 376.574219 59.554688 378.261719 63.03125 378.4375 C 66.261719 378.058594 68.175781 376.339844 68.148438 373.03125 C 68.121094 369.464844 66.097656 367.554688 62.566406 367.65625 Z M 122.382812 140.453125 C 125.632812 140.269531 127.691406 138.6875 127.835938 135.375 C 127.992188 131.859375 126.160156 129.726562 122.585938 129.679688 C 119.035156 129.628906 117.09375 131.644531 117.148438 135.191406 C 117.195312 138.503906 119.167969 140.164062 122.382812 140.453125 Z M 151.605469 110.9375 C 155.136719 111.03125 157.140625 109.042969 157.082031 105.496094 C 157.03125 102.183594 154.992188 100.574219 151.765625 100.304688 C 148.554688 100.621094 146.582031 102.273438 146.546875 105.585938 C 146.511719 108.863281 148.328125 110.847656 151.605469 110.9375 Z M 388.328125 544.929688 C 385.066406 544.992188 383.234375 546.960938 383.246094 550.222656 C 383.253906 553.523438 385.222656 555.175781 388.402344 555.53125 C 391.617188 555.277344 393.675781 553.683594 393.75 550.394531 C 393.832031 546.871094 391.851562 544.859375 388.328125 544.929688 Z M 62.980469 258.980469 C 66.5 258.890625 68.183594 256.75 68.355469 253.320312 C 67.992188 249.847656 66.105469 247.894531 62.621094 248 C 59.117188 248.109375 57.222656 250.195312 57.320312 253.671875 C 57.417969 257.175781 59.511719 259.066406 62.980469 258.980469 Z M 211.683594 81.875 C 215.152344 81.515625 217.101562 79.625 216.996094 76.136719 C 216.890625 72.628906 214.800781 70.730469 211.332031 70.828125 C 207.832031 70.925781 205.941406 73.023438 206.03125 76.496094 C 206.117188 80.019531 208.257812 81.703125 211.683594 81.875 Z M 477.4375 486.027344 C 474.164062 486.050781 472.214844 487.890625 472.085938 491.167969 C 471.949219 494.667969 473.785156 496.804688 477.34375 496.910156 C 480.886719 497.015625 482.734375 495.019531 483.03125 491.511719 C 482.78125 488.023438 480.992188 486 477.4375 486.027344 Z M 240.625 544.753906 C 237.359375 544.863281 235.480469 546.738281 235.421875 550.003906 C 235.355469 553.519531 237.253906 555.5625 240.792969 555.601562 C 244.34375 555.636719 246.097656 553.574219 246.34375 549.898438 C 245.960938 546.65625 244.191406 544.628906 240.625 544.753906 Z M 537.054688 396.742188 C 533.558594 397.125 531.570312 399.035156 531.675781 402.542969 C 531.785156 406.058594 533.90625 408 537.394531 407.898438 C 540.910156 407.796875 542.84375 405.671875 542.75 402.179688 C 542.65625 398.640625 540.488281 396.929688 537.054688 396.742188 Z M 211.355469 544.902344 C 208.648438 545.375 206.527344 546.832031 206.402344 549.878906 C 206.265625 553.160156 208.199219 555.210938 211.472656 555.292969 C 214.503906 555.371094 216.449219 553.46875 216.617188 550.480469 C 216.804688 547.167969 214.738281 545.449219 211.355469 544.902344 Z M 566.378906 288.996094 C 569.648438 289.105469 571.652344 287.074219 571.648438 283.792969 C 571.644531 280.742188 569.636719 279.15625 566.726562 278.664062 C 563.699219 278.929688 561.648438 280.480469 561.4375 283.476562 C 561.203125 286.75 563.121094 288.890625 566.378906 288.996094 Z M 93.175781 170.625 C 96.433594 170.625 98.351562 168.6875 98.367188 165.421875 C 98.382812 162.125 96.351562 160.488281 93.167969 160.117188 C 89.980469 160.492188 87.953125 162.132812 87.972656 165.429688 C 87.992188 168.695312 89.914062 170.628906 93.175781 170.625 Z M 566.5 308.105469 C 563.507812 308.117188 561.59375 309.960938 561.417969 312.902344 C 561.222656 316.136719 563.117188 318.210938 566.324219 318.375 C 569.585938 318.539062 571.277344 316.476562 571.839844 313.039062 C 571.289062 310.28125 569.796875 308.097656 566.5 308.105469 Z M 537.109375 200.019531 C 540.441406 200.097656 542.144531 198.121094 542.542969 194.898438 C 542.265625 191.648438 540.65625 189.589844 537.320312 189.542969 C 534.019531 189.5 532.046875 191.367188 531.988281 194.675781 C 531.925781 197.976562 533.804688 199.941406 537.109375 200.019531 Z M 418.617188 81.621094 C 421.863281 81.386719 423.949219 79.8125 424.066406 76.523438 C 424.183594 73.269531 422.335938 71.25 419.082031 71.117188 C 415.828125 70.988281 413.824219 72.847656 413.675781 76.105469 C 413.527344 79.398438 415.496094 81.117188 418.617188 81.621094 Z M 122.472656 486.230469 C 119.46875 486.667969 117.449219 488.242188 117.386719 491.28125 C 117.316406 494.558594 119.285156 496.582031 122.5625 496.585938 C 125.582031 496.585938 127.507812 494.671875 127.601562 491.664062 C 127.707031 488.347656 125.621094 486.667969 122.472656 486.230469 Z M 63.027344 229.433594 C 66.132812 228.925781 68.125 227.21875 67.984375 223.945312 C 67.84375 220.710938 65.84375 218.828125 62.609375 218.949219 C 59.378906 219.074219 57.511719 221.085938 57.617188 224.328125 C 57.722656 227.59375 59.8125 229.171875 63.027344 229.433594 Z M 62.855469 397.316406 C 59.59375 397.332031 57.585938 399.417969 57.765625 402.691406 C 57.929688 405.679688 60.007812 407.25 63.007812 407.523438 C 65.925781 406.964844 67.914062 405.335938 67.847656 402.285156 C 67.785156 399.273438 65.859375 397.304688 62.855469 397.316406 Z M 566.410156 259.46875 C 569.398438 259.558594 571.367188 257.636719 571.464844 254.667969 C 571.5625 251.660156 569.585938 250.015625 566.632812 249.492188 C 563.71875 249.851562 561.6875 251.417969 561.609375 254.410156 C 561.535156 257.402344 563.445312 259.382812 566.410156 259.46875 Z M 181.101562 81.4375 C 184.027344 81.039062 186.035156 79.46875 186.144531 76.488281 C 186.257812 73.492188 184.363281 71.476562 181.441406 71.320312 C 178.21875 71.152344 176.152344 73.175781 176.148438 76.398438 C 176.144531 79.382812 178.183594 80.980469 181.101562 81.4375 Z M 477.582031 110.773438 C 480.285156 110.316406 482.402344 108.832031 482.472656 105.804688 C 482.542969 102.796875 480.628906 100.808594 477.652344 100.714844 C 474.652344 100.625 472.671875 102.554688 472.570312 105.535156 C 472.46875 108.558594 474.460938 110.207031 477.582031 110.773438 Z M 507.761719 139.953125 C 510.75 140.042969 512.722656 138.121094 512.816406 135.152344 C 512.914062 132.144531 510.9375 130.5 507.988281 129.976562 C 505.070312 130.335938 503.039062 131.902344 502.964844 134.894531 C 502.886719 137.886719 504.796875 139.867188 507.761719 139.953125 Z M 151.699219 515.871094 C 148.71875 515.960938 146.789062 517.941406 146.871094 520.941406 C 146.953125 523.925781 148.9375 525.851562 151.9375 525.78125 C 154.9375 525.710938 156.511719 523.667969 156.886719 520.730469 C 156.359375 517.777344 154.722656 515.777344 151.699219 515.871094 Z M 92.019531 455.996094 C 89.066406 456.53125 87.070312 458.179688 87.171875 461.199219 C 87.273438 464.183594 89.253906 466.113281 92.257812 466.019531 C 95.234375 465.929688 97.15625 463.9375 97.074219 460.9375 C 96.992188 457.929688 94.949219 456.359375 92.019531 455.996094 Z M 270.265625 50.984375 C 273.21875 50.449219 275.210938 48.804688 275.109375 45.78125 C 275.007812 42.796875 273.027344 40.867188 270.027344 40.960938 C 267.050781 41.050781 265.128906 43.039062 265.207031 46.046875 C 265.289062 49.050781 267.335938 50.621094 270.265625 50.984375 Z M 566.8125 337.5625 C 563.546875 337.417969 561.480469 339.445312 561.5 342.71875 C 561.515625 345.742188 563.566406 347.335938 566.527344 347.769531 C 569.480469 347.355469 571.5 345.777344 571.585938 342.746094 C 571.675781 339.710938 569.78125 337.699219 566.8125 337.5625 Z M 537.527344 426.664062 C 534.492188 426.453125 532.433594 428.316406 532.191406 431.273438 C 531.921875 434.546875 533.910156 436.652344 537.160156 436.757812 C 540.199219 436.859375 541.828125 434.828125 542.375 431.902344 C 542.085938 428.902344 540.519531 426.871094 537.527344 426.664062 Z M 300.714844 50.957031 C 303.730469 50.894531 305.308594 48.828125 305.695312 45.855469 C 305.230469 42.90625 303.636719 40.898438 300.605469 40.859375 C 297.578125 40.820312 295.582031 42.722656 295.496094 45.710938 C 295.402344 48.980469 297.449219 51.023438 300.714844 50.957031 Z M 330.214844 50.933594 C 333.175781 50.753906 334.742188 48.671875 334.992188 45.679688 C 334.417969 42.773438 332.785156 40.792969 329.753906 40.875 C 326.761719 40.960938 324.804688 42.890625 324.835938 45.882812 C 324.867188 49.132812 326.960938 51.136719 330.214844 50.933594 Z M 566.449219 368.179688 C 563.578125 368.570312 561.789062 370.144531 561.789062 372.9375 C 561.792969 375.984375 563.691406 377.871094 566.722656 377.746094 C 569.746094 377.625 571.511719 375.613281 571.265625 372.5625 C 571.042969 369.777344 569.125 368.367188 566.449219 368.179688 Z M 241.085938 50.546875 C 243.914062 50.410156 245.351562 48.605469 245.519531 45.796875 C 245.226562 42.96875 243.671875 41.25 240.84375 41.28125 C 237.738281 41.3125 236.03125 43.230469 236.21875 46.289062 C 236.394531 49.113281 238.277344 50.6875 241.085938 50.546875 Z M 359.007812 50.734375 C 362.015625 50.855469 363.671875 48.925781 364.09375 45.9375 C 363.722656 42.988281 362.113281 41.066406 359.09375 41.078125 C 356.332031 41.089844 354.5 42.886719 354.355469 45.613281 C 354.199219 48.617188 356.023438 50.617188 359.007812 50.734375 Z M 419.023438 545.382812 C 415.964844 545.332031 414.058594 547.234375 414.078125 550.289062 C 414.101562 553.089844 415.933594 554.921875 418.722656 554.980469 C 421.792969 555.039062 423.417969 553.097656 423.757812 550.125 C 423.367188 547.289062 421.824219 545.429688 419.023438 545.382812 Z M 62.367188 199.429688 C 65.445312 199.660156 67.390625 197.925781 67.460938 194.828125 C 67.527344 192 65.800781 190.398438 62.777344 190.035156 C 60.183594 190.238281 58.300781 191.636719 58.132812 194.476562 C 57.96875 197.285156 59.535156 199.21875 62.367188 199.429688 Z M 506.699219 486.988281 C 504.050781 487.035156 502.464844 488.570312 502.367188 491.222656 C 502.265625 494.113281 503.796875 495.878906 506.726562 495.949219 C 509.644531 496.019531 511.164062 494.351562 511.375 491.46875 C 511.152344 488.558594 509.613281 486.933594 506.699219 486.988281 Z M 329.910156 576.234375 C 326.984375 576.203125 325.429688 577.882812 325.503906 580.785156 C 325.574219 583.460938 327.183594 584.792969 330.074219 585.015625 C 332.363281 584.796875 334.089844 583.59375 334.203125 580.894531 C 334.328125 578.011719 332.847656 576.265625 329.910156 576.234375 Z M 122.5 110.027344 C 125.160156 110.058594 126.585938 108.542969 126.894531 105.976562 C 126.859375 103.3125 125.667969 101.5625 123.003906 101.332031 C 120.160156 101.085938 118.292969 102.460938 118.152344 105.417969 C 118.015625 108.3125 119.566406 109.992188 122.5 110.027344 Z M 447.933594 80.796875 C 450.828125 80.914062 452.441406 79.355469 452.726562 76.40625 C 452.574219 73.570312 451.132812 71.832031 448.199219 71.835938 C 445.28125 71.839844 443.679688 73.535156 443.71875 76.441406 C 443.753906 79.09375 445.285156 80.683594 447.933594 80.796875 Z M 299.257812 576.148438 C 296.917969 576.40625 295.214844 577.628906 295.128906 580.328125 C 295.039062 583.226562 296.554688 584.910156 299.488281 584.9375 C 302.132812 584.960938 303.71875 583.496094 303.832031 580.835938 C 303.957031 577.917969 302.363281 576.394531 299.257812 576.148438 Z M 33.164062 288.277344 C 35.816406 288.238281 37.554688 287.050781 37.785156 284.398438 C 38.035156 281.570312 36.660156 279.710938 33.726562 279.570312 C 30.851562 279.429688 29.183594 280.980469 29.148438 283.898438 C 29.113281 286.550781 30.625 287.964844 33.164062 288.277344 Z M 566.429688 228.492188 C 569.371094 228.53125 570.796875 226.859375 570.960938 223.765625 C 570.636719 221.417969 569.34375 219.785156 566.644531 219.777344 C 563.726562 219.765625 562.136719 221.371094 562.1875 224.285156 C 562.238281 226.945312 563.777344 228.453125 566.429688 228.492188 Z M 477.582031 516.414062 C 474.75 516.585938 473.101562 518.042969 473.167969 520.976562 C 473.226562 523.636719 474.757812 525.152344 477.414062 525.179688 C 480.328125 525.210938 481.917969 523.589844 481.871094 520.675781 C 481.828125 518 480.246094 516.644531 477.582031 516.414062 Z M 33.480469 308.894531 C 30.835938 308.863281 29.246094 310.324219 29.128906 312.984375 C 28.996094 315.902344 30.585938 317.429688 33.425781 317.660156 C 36.089844 317.492188 37.722656 316.183594 37.824219 313.511719 C 37.9375 310.617188 36.414062 308.925781 33.480469 308.894531 Z M 63.113281 427.359375 C 60.230469 427.234375 58.484375 428.714844 58.457031 431.660156 C 58.425781 434.585938 60.101562 436.144531 63.003906 436.066406 C 65.675781 436 67.003906 434.390625 67.226562 431.492188 C 67.007812 429.203125 65.808594 427.476562 63.113281 427.359375 Z M 388.652344 50.265625 C 391.324219 50.226562 392.679688 48.644531 392.910156 45.972656 C 392.738281 43.140625 391.28125 41.492188 388.351562 41.554688 C 385.695312 41.617188 384.179688 43.148438 384.152344 45.804688 C 384.121094 48.726562 385.742188 50.3125 388.652344 50.265625 Z M 181.601562 545.835938 C 178.757812 545.617188 176.910156 547.019531 176.796875 549.976562 C 176.6875 552.875 178.265625 554.527344 181.195312 554.535156 C 183.859375 554.542969 185.261719 553.007812 185.542969 550.429688 C 185.488281 547.769531 184.265625 546.042969 181.601562 545.835938 Z M 537.304688 169.980469 C 539.914062 169.765625 541.707031 168.390625 541.691406 165.429688 C 541.675781 162.507812 539.992188 160.90625 537.089844 160.945312 C 534.4375 160.980469 532.847656 162.511719 532.738281 165.164062 C 532.621094 168.0625 534.175781 169.675781 537.304688 169.980469 Z M 240.851562 576.5 C 238.207031 576.550781 236.640625 578.175781 236.761719 580.824219 C 236.871094 583.195312 238.425781 584.691406 240.820312 584.667969 C 243.488281 584.640625 244.792969 582.945312 245.003906 580.367188 C 244.558594 578.019531 243.265625 576.457031 240.851562 576.5 Z M 62.871094 169.453125 C 65.28125 169.464844 66.558594 167.839844 66.917969 165.480469 C 66.636719 163.113281 65.390625 161.511719 62.984375 161.390625 C 60.5625 161.269531 58.945312 162.761719 58.785156 165.113281 C 58.601562 167.769531 60.214844 169.445312 62.871094 169.453125 Z M 566.65625 198.753906 C 569.078125 198.683594 570.328125 197.046875 570.601562 194.675781 C 570.167969 192.308594 568.859375 190.714844 566.417969 190.808594 C 564.015625 190.898438 562.488281 192.480469 562.570312 194.902344 C 562.652344 197.304688 564.238281 198.828125 566.65625 198.753906 Z M 419.003906 49.859375 C 421.382812 49.765625 422.898438 48.183594 422.816406 45.78125 C 422.734375 43.378906 421.105469 42.136719 418.570312 41.847656 C 416.484375 42.386719 414.808594 43.59375 414.925781 46.042969 C 415.039062 48.425781 416.601562 49.949219 419.003906 49.859375 Z M 270.515625 576.339844 C 267.65625 576.160156 265.9375 577.683594 265.910156 580.609375 C 265.886719 583.269531 267.460938 584.628906 270.339844 584.933594 C 272.582031 584.671875 274.308594 583.511719 274.414062 580.8125 C 274.519531 578.1875 273.148438 576.507812 270.515625 576.339844 Z M 448.316406 546.097656 C 445.640625 546.046875 444.3125 547.726562 443.988281 550.597656 C 444.515625 552.546875 445.621094 554.265625 448.078125 554.269531 C 450.726562 554.269531 452.320312 552.6875 452.269531 550.042969 C 452.230469 547.65625 450.699219 546.144531 448.316406 546.097656 Z M 537.1875 456.824219 C 534.5 456.886719 532.972656 458.40625 532.984375 461.09375 C 533 463.785156 534.554688 465.308594 537.242188 465.304688 C 539.949219 465.300781 541.292969 463.6875 541.546875 460.648438 C 541.128906 458.53125 539.96875 456.761719 537.1875 456.824219 Z M 211.367188 50.078125 C 214.066406 50.183594 215.449219 48.5625 215.757812 45.929688 C 215.472656 43.296875 214.109375 41.695312 211.402344 41.738281 C 208.972656 41.777344 207.476562 43.222656 207.351562 45.632812 C 207.210938 48.308594 208.683594 49.972656 211.367188 50.078125 Z M 93.234375 139.386719 C 95.878906 139.15625 97.445312 137.785156 97.472656 135.085938 C 97.5 132.414062 96.039062 130.804688 93.363281 130.726562 C 90.425781 130.644531 88.800781 132.28125 88.875 135.21875 C 88.945312 137.917969 90.601562 139.226562 93.234375 139.386719 Z M 33.832031 338.359375 C 30.972656 338.179688 29.253906 339.703125 29.226562 342.628906 C 29.203125 345.289062 30.777344 346.648438 33.65625 346.953125 C 35.898438 346.691406 37.621094 345.53125 37.730469 342.832031 C 37.835938 340.207031 36.460938 338.523438 33.832031 338.359375 Z M 566.816406 398.105469 C 564.199219 397.953125 562.492188 399.320312 562.300781 401.953125 C 562.09375 404.804688 563.585938 406.558594 566.511719 406.613281 C 569.167969 406.664062 570.546875 405.105469 570.851562 402.53125 C 570.726562 399.914062 569.472656 398.257812 566.816406 398.105469 Z M 33.699219 257.738281 C 36.289062 257.320312 37.820312 255.859375 37.640625 253.167969 C 37.476562 250.761719 35.972656 249.320312 33.542969 249.320312 C 30.855469 249.320312 29.285156 250.871094 29.316406 253.554688 C 29.347656 256.265625 31.035156 257.5625 33.699219 257.738281 Z M 359.0625 576.402344 C 356.636719 576.484375 355.136719 577.894531 355.015625 580.308594 C 354.882812 582.984375 356.351562 584.644531 359.035156 584.746094 C 361.738281 584.851562 363.121094 583.230469 363.46875 580.21875 C 362.988281 578.117188 361.851562 576.3125 359.0625 576.402344 Z M 122.613281 516.765625 C 119.984375 516.738281 118.390625 518.339844 118.4375 520.964844 C 118.480469 523.328125 120.011719 524.84375 122.375 524.886719 C 125.027344 524.9375 126.351562 523.257812 126.648438 520.730469 C 126.257812 518.371094 125 516.785156 122.613281 516.765625 Z M 151.859375 80.480469 C 154.566406 80.464844 155.871094 78.78125 156.0625 76.121094 C 155.65625 73.527344 154.214844 71.976562 151.515625 72.148438 C 149.109375 72.296875 147.664062 73.796875 147.652344 76.226562 C 147.640625 78.914062 149.175781 80.496094 151.859375 80.480469 Z M 92.238281 487.445312 C 89.582031 487.417969 87.964844 489.085938 88.105469 491.746094 C 88.230469 494.125 89.878906 495.378906 92.269531 495.59375 C 94.609375 495.179688 96.171875 493.882812 96.152344 491.457031 C 96.132812 489.050781 94.625 487.476562 92.238281 487.445312 Z M 388.398438 576.5 C 386.363281 576.910156 384.613281 577.992188 384.550781 580.449219 C 384.492188 582.859375 385.992188 584.4375 388.367188 584.53125 C 390.769531 584.625 392.34375 583.097656 392.445312 580.714844 C 392.546875 578.296875 390.964844 576.984375 388.398438 576.5 Z M 33.53125 368.921875 C 30.882812 368.941406 29.3125 370.5625 29.402344 373.207031 C 29.484375 375.585938 31.03125 377.085938 33.421875 377.089844 C 36.09375 377.09375 37.40625 375.402344 37.648438 372.832031 C 37.222656 370.476562 35.941406 368.90625 33.53125 368.921875 Z M 508.007812 109.617188 C 510.386719 109.535156 511.90625 107.953125 511.835938 105.550781 C 511.761719 103.148438 510.136719 101.902344 507.601562 101.601562 C 505.511719 102.128906 503.835938 103.335938 503.945312 105.789062 C 504.046875 108.171875 505.609375 109.699219 508.007812 109.617188 Z M 566.746094 427.898438 C 564.632812 428.03125 563.101562 429.101562 562.835938 431.226562 C 562.53125 433.652344 563.960938 435.230469 566.300781 435.449219 C 568.4375 435.652344 569.96875 434.316406 570.238281 432.203125 C 570.546875 429.769531 569.082031 428.421875 566.746094 427.898438 Z M 151.804688 546.4375 C 149.65625 546.398438 148.195312 547.824219 148.082031 549.941406 C 147.957031 552.34375 149.46875 553.660156 151.78125 553.992188 C 153.980469 553.742188 155.445312 552.539062 155.550781 550.421875 C 155.671875 548.027344 154.191406 546.484375 151.804688 546.4375 Z M 33.164062 227.964844 C 35.550781 228.144531 37.164062 226.664062 37.300781 224.320312 C 37.4375 221.929688 35.859375 220.617188 33.351562 220.1875 C 31.269531 220.617188 29.617188 221.773438 29.636719 224.207031 C 29.65625 226.355469 31.078125 227.808594 33.164062 227.964844 Z M 62.820312 457.347656 C 60.875 457.507812 59.359375 458.566406 59.164062 460.726562 C 58.96875 462.871094 60.171875 464.433594 62.335938 464.675781 C 64.761719 464.949219 66.320312 463.566406 66.433594 461.15625 C 66.535156 458.988281 65.164062 457.730469 62.820312 457.347656 Z M 181.234375 49.507812 C 183.460938 49.453125 184.621094 48.035156 184.785156 45.820312 C 184.511719 43.605469 183.273438 42.257812 181.046875 42.316406 C 178.828125 42.375 177.492188 43.777344 177.550781 46.003906 C 177.609375 48.230469 179.011719 49.5625 181.234375 49.507812 Z M 596.175781 316.886719 C 598.316406 316.699219 599.441406 315.234375 599.558594 313.140625 C 599.214844 310.910156 597.972656 309.527344 595.800781 309.609375 C 593.386719 309.703125 592.003906 311.261719 592.253906 313.683594 C 592.476562 315.84375 594.023438 317.078125 596.175781 316.886719 Z M 537.113281 138.835938 C 539.261719 138.65625 540.765625 137.484375 540.945312 135.386719 C 541.148438 133 539.703125 131.414062 537.324219 131.28125 C 535.167969 131.164062 533.671875 132.566406 533.488281 134.664062 C 533.273438 137.058594 534.753906 138.429688 537.113281 138.835938 Z M 477.945312 80.089844 C 480.074219 79.863281 481.222656 78.320312 481.390625 76.203125 C 481 74.007812 479.777344 72.519531 477.605469 72.519531 C 475.1875 72.515625 473.613281 74.074219 473.738281 76.484375 C 473.863281 78.863281 475.503906 80.351562 477.945312 80.089844 Z M 33.0625 398.742188 C 30.914062 398.953125 29.660156 400.488281 29.839844 402.648438 C 30.015625 404.796875 31.46875 405.929688 33.558594 406.0625 C 35.792969 405.730469 37.179688 404.496094 37.109375 402.324219 C 37.035156 399.902344 35.480469 398.507812 33.0625 398.742188 Z M 211.855469 576.945312 C 209.710938 576.742188 208.152344 577.949219 207.910156 580.117188 C 207.636719 582.546875 209.019531 584.105469 211.421875 584.21875 C 213.589844 584.324219 214.847656 582.949219 215.210938 580.71875 C 215.105469 578.625 213.996094 577.148438 211.855469 576.945312 Z M 595.824219 287.539062 C 598.035156 287.34375 599.433594 286.164062 599.453125 283.929688 C 599.476562 281.703125 598.121094 280.320312 595.898438 280.296875 C 593.675781 280.273438 592.292969 281.628906 592.269531 283.855469 C 592.246094 286.082031 593.609375 287.304688 595.824219 287.539062 Z M 92.914062 108.921875 C 94.96875 109.054688 96.191406 108.019531 96.476562 105.714844 C 96.398438 103.929688 95.570312 102.539062 93.425781 102.414062 C 91.375 102.296875 90.054688 103.292969 89.921875 105.410156 C 89.792969 107.464844 90.800781 108.785156 92.914062 108.921875 Z M 240.480469 19.683594 C 242.488281 19.894531 243.703125 18.828125 244.011719 16.792969 C 243.960938 14.769531 243.019531 13.511719 240.9375 13.417969 C 239.136719 13.335938 237.953125 14.300781 237.726562 16.074219 C 237.46875 18.078125 238.429688 19.46875 240.480469 19.683594 Z M 270.21875 19.921875 C 272.234375 19.917969 273.347656 18.769531 273.570312 16.546875 C 273.515625 14.785156 272.632812 13.398438 270.613281 13.207031 C 268.414062 12.996094 266.914062 14.042969 266.804688 16.363281 C 266.699219 18.621094 267.933594 19.925781 270.21875 19.921875 Z M 595.78125 369.777344 C 593.699219 369.820312 592.597656 371.019531 592.636719 373.085938 C 592.675781 375.179688 593.894531 376.1875 595.910156 376.269531 C 598.007812 376.105469 599.132812 375 599.089844 372.925781 C 599.042969 370.839844 597.847656 369.734375 595.78125 369.777344 Z M 566.816406 168.699219 C 568.640625 168.488281 569.824219 167.445312 569.765625 165.347656 C 569.707031 163.261719 568.523438 162.15625 566.457031 162.199219 C 564.375 162.242188 563.273438 163.441406 563.3125 165.507812 C 563.351562 167.601562 564.570312 168.609375 566.816406 168.699219 Z M 477.4375 546.949219 C 475.351562 546.996094 474.253906 548.195312 474.292969 550.261719 C 474.335938 552.347656 475.535156 553.449219 477.601562 553.410156 C 479.691406 553.371094 480.695312 552.148438 480.78125 550.125 C 480.613281 548.035156 479.515625 546.902344 477.4375 546.949219 Z M 181.019531 577.554688 C 179.234375 577.671875 178.089844 578.792969 178.132812 580.578125 C 178.179688 582.621094 179.496094 583.8125 181.519531 583.585938 C 183.242188 583.394531 184.183594 582.140625 184.214844 580.046875 C 183.71875 578.730469 182.886719 577.433594 181.019531 577.554688 Z M 300.71875 19.953125 C 302.75 19.886719 303.910156 18.65625 303.925781 16.628906 C 303.941406 14.316406 302.601562 13.203125 300.429688 13.121094 C 298.320312 13.339844 297.144531 14.453125 297.136719 16.488281 C 297.128906 18.792969 298.4375 20.027344 300.71875 19.953125 Z M 329.914062 19.953125 C 331.941406 19.953125 333.167969 18.789062 333.246094 16.757812 C 333.335938 14.464844 332.066406 13.269531 329.875 13.117188 C 327.78125 13.277344 326.53125 14.3125 326.460938 16.359375 C 326.382812 18.644531 327.613281 19.957031 329.914062 19.953125 Z M 359.257812 19.8125 C 361.367188 19.773438 362.382812 18.542969 362.464844 16.503906 C 362.300781 14.390625 361.191406 13.253906 359.097656 13.300781 C 356.992188 13.347656 355.886719 14.554688 355.925781 16.636719 C 355.96875 18.742188 357.175781 19.851562 359.257812 19.8125 Z M 595.605469 257.789062 C 597.65625 257.921875 598.972656 256.910156 599.109375 254.796875 C 599.246094 252.738281 598.210938 251.515625 595.90625 251.226562 C 594.125 251.308594 592.734375 252.136719 592.609375 254.28125 C 592.492188 256.335938 593.488281 257.65625 595.605469 257.789062 Z M 388.78125 19.566406 C 390.53125 19.433594 391.472656 18.203125 391.582031 16.398438 C 391.257812 14.664062 390.285156 13.511719 388.480469 13.535156 C 386.6875 13.558594 385.515625 14.675781 385.492188 16.453125 C 385.464844 18.503906 386.746094 19.71875 388.78125 19.566406 Z M 92.40625 517.847656 C 90.402344 517.683594 89.128906 518.90625 89.140625 520.921875 C 89.152344 522.683594 90.367188 523.625 92.367188 523.925781 C 93.71875 523.546875 95.035156 522.800781 95.121094 520.984375 C 95.203125 519.1875 94.105469 517.988281 92.40625 517.847656 Z M 506.914062 517.429688 C 504.613281 517.417969 503.375 518.734375 503.453125 521.015625 C 503.519531 523.046875 504.746094 524.210938 506.773438 524.222656 C 509.082031 524.238281 510.199219 522.902344 510.277344 520.726562 C 510.0625 518.609375 508.941406 517.4375 506.914062 517.429688 Z M 595.921875 339.203125 C 593.898438 339.144531 592.613281 340.261719 592.472656 342.285156 C 592.320312 344.546875 593.507812 345.835938 595.820312 346.039062 C 597.8125 345.945312 599.117188 344.957031 599.25 342.921875 C 599.398438 340.664062 598.238281 339.273438 595.921875 339.203125 Z M 419.128906 577.332031 C 417.078125 577.203125 415.757812 578.210938 415.625 580.324219 C 415.492188 582.375 416.503906 583.699219 418.617188 583.835938 C 420.671875 583.96875 421.894531 582.9375 422.152344 580.839844 C 422.15625 578.792969 421.253906 577.460938 419.128906 577.332031 Z M 122.238281 79.566406 C 124.292969 79.703125 125.519531 78.667969 125.804688 76.339844 C 125.722656 74.574219 124.894531 73.183594 122.753906 73.058594 C 120.699219 72.941406 119.382812 73.945312 119.246094 76.058594 C 119.117188 78.109375 120.125 79.429688 122.238281 79.566406 Z M 448.167969 49.050781 C 450.226562 49.03125 451.382812 47.863281 451.324219 45.8125 C 451.269531 43.738281 449.988281 42.78125 447.960938 42.734375 C 445.929688 43.042969 444.886719 44.25 445.070312 46.269531 C 445.230469 48.046875 446.363281 49.070312 448.167969 49.050781 Z M 299.121094 606.832031 C 297.746094 607.25 296.449219 608.054688 296.457031 609.90625 C 296.46875 611.707031 297.550781 612.894531 299.324219 612.949219 C 301.371094 613.015625 302.597656 611.753906 302.492188 609.710938 C 302.398438 607.941406 301.167969 607.007812 299.121094 606.832031 Z M 62.898438 138.15625 C 64.972656 138.101562 65.929688 136.820312 65.976562 134.789062 C 65.667969 132.753906 64.460938 131.710938 62.441406 131.894531 C 60.667969 132.054688 59.644531 133.1875 59.664062 134.996094 C 59.6875 137.058594 60.847656 138.210938 62.898438 138.15625 Z M 595.609375 227.144531 C 597.644531 227.28125 598.914062 226.054688 598.871094 224.003906 C 598.835938 222.214844 597.621094 221.273438 595.585938 221.015625 C 594.207031 221.394531 592.894531 222.160156 592.835938 224.011719 C 592.777344 225.828125 593.863281 227.027344 595.609375 227.144531 Z M 566.53125 457.984375 C 564.777344 458.214844 563.601562 459.144531 563.519531 460.945312 C 563.433594 462.761719 564.542969 463.957031 566.285156 464.074219 C 568.324219 464.210938 569.589844 462.988281 569.550781 460.933594 C 569.511719 459.144531 568.296875 458.207031 566.53125 457.984375 Z M 33.996094 198.039062 C 35.75 197.738281 36.84375 196.589844 36.703125 194.53125 C 36.554688 192.433594 35.257812 191.425781 33.222656 191.554688 C 31.132812 191.6875 30.125 192.996094 30.253906 195.035156 C 30.382812 197.136719 31.699219 198.042969 33.996094 198.039062 Z M 33.734375 428.6875 C 31.917969 428.527344 30.679688 429.609375 30.476562 431.328125 C 30.242188 433.351562 31.429688 434.667969 33.472656 434.730469 C 35.273438 434.78125 36.242188 433.589844 36.605469 431.578125 C 36.320312 430.152344 35.546875 428.847656 33.734375 428.6875 Z M 536.960938 488.214844 C 534.84375 488.363281 533.835938 489.675781 533.964844 491.726562 C 534.097656 493.839844 535.417969 494.851562 537.46875 494.722656 C 539.585938 494.59375 540.496094 493.261719 540.496094 490.894531 C 540.183594 489.183594 539.039062 488.074219 536.960938 488.214844 Z M 122.15625 547.226562 C 120.753906 547.773438 119.394531 548.636719 119.648438 550.464844 C 119.886719 552.148438 121.101562 553.304688 122.902344 553.015625 C 124.339844 552.785156 125.429688 551.722656 125.351562 550.148438 C 125.261719 548.367188 124.085938 547.449219 122.15625 547.226562 Z M 62.617188 488.484375 C 61.269531 488.933594 59.921875 489.667969 59.933594 491.523438 C 59.945312 493.082031 61.011719 494.148438 62.46875 494.320312 C 64.253906 494.527344 65.480469 493.390625 65.640625 491.671875 C 65.804688 489.882812 64.582031 488.914062 62.617188 488.484375 Z M 537.566406 108.402344 C 539.019531 108.222656 539.90625 107.128906 540.019531 105.5625 C 539.648438 103.851562 538.632812 102.707031 536.863281 102.933594 C 535.425781 103.117188 534.339844 104.199219 534.472656 105.769531 C 534.617188 107.519531 535.800781 108.617188 537.566406 108.402344 Z M 33.601562 168.097656 C 35.199219 167.785156 36.210938 166.871094 36.089844 165.265625 C 35.976562 163.691406 34.921875 162.691406 33.3125 162.8125 C 31.742188 162.929688 30.75 163.980469 30.863281 165.589844 C 30.976562 167.175781 32.042969 168.003906 33.601562 168.097656 Z M 4.28125 310.304688 C 2.488281 310.214844 1.316406 311.359375 1.21875 313.117188 C 1.121094 314.914062 2.269531 316.082031 4.023438 316.183594 C 5.835938 316.292969 6.789062 315.082031 7.167969 313.367188 C 6.980469 311.609375 6.054688 310.394531 4.28125 310.304688 Z M 507.703125 79.058594 C 509.257812 79.253906 510.359375 78.199219 510.601562 76.75 C 510.902344 74.953125 509.75 73.957031 507.898438 73.460938 C 506.585938 73.660156 505.40625 74.382812 505.175781 75.878906 C 504.898438 77.683594 505.996094 78.84375 507.703125 79.058594 Z M 595.875 399.5 C 594.300781 399.433594 593.234375 400.53125 593.023438 401.96875 C 592.757812 403.757812 593.902344 405 595.601562 405.203125 C 597.390625 405.417969 598.371094 404.183594 598.796875 402.46875 C 598.574219 400.75 597.65625 399.570312 595.875 399.5 Z M 4.152344 256.105469 C 5.753906 256.109375 6.617188 255.074219 6.835938 253.324219 C 6.570312 251.953125 5.769531 250.855469 4.152344 250.871094 C 2.558594 250.882812 1.535156 251.894531 1.535156 253.488281 C 1.539062 255.082031 2.554688 256.105469 4.152344 256.105469 Z M 211.066406 19.335938 C 212.910156 19.660156 213.910156 18.445312 214.441406 16.566406 C 214.21875 15.226562 213.476562 14.011719 211.957031 13.773438 C 210.113281 13.480469 208.929688 14.625 208.707031 16.363281 C 208.5 17.960938 209.601562 19.082031 211.066406 19.335938 Z M 4.636719 286.707031 C 6.070312 286.421875 7.144531 285.359375 7.007812 283.78125 C 6.855469 282.019531 5.675781 281.105469 3.765625 280.953125 C 2.34375 281.53125 0.988281 282.4375 1.3125 284.253906 C 1.605469 285.898438 2.8125 287.074219 4.636719 286.707031 Z M 4.242188 339.738281 C 2.667969 339.621094 1.601562 340.699219 1.335938 342.136719 C 0.996094 343.953125 2.152344 345.179688 3.8125 345.441406 C 5.597656 345.71875 6.597656 344.484375 7.078125 342.800781 C 6.921875 341.054688 6.007812 339.871094 4.242188 339.738281 Z M 448.195312 577.964844 C 446.605469 577.96875 445.582031 578.984375 445.582031 580.582031 C 445.582031 582.179688 446.601562 583.195312 448.195312 583.199219 C 449.800781 583.203125 450.660156 582.164062 450.863281 580.585938 C 450.664062 579 449.796875 577.960938 448.195312 577.964844 Z M 241.011719 607.324219 C 239.402344 607.199219 238.347656 608.191406 238.222656 609.765625 C 238.097656 611.375 239.105469 612.289062 240.722656 612.609375 C 242.261719 612.519531 243.335938 611.695312 243.453125 610.113281 C 243.570312 608.503906 242.582031 607.445312 241.011719 607.324219 Z M 269.988281 607.089844 C 268.265625 607.234375 267.128906 608.449219 267.316406 610.238281 C 267.472656 611.707031 268.527344 612.792969 270.082031 612.796875 C 271.882812 612.800781 272.800781 611.613281 273.09375 609.898438 C 272.734375 608.179688 271.78125 606.941406 269.988281 607.089844 Z M 152.304688 48.726562 C 153.734375 48.441406 154.808594 47.378906 154.671875 45.800781 C 154.523438 44.039062 153.339844 43.125 151.597656 42.984375 C 149.921875 43.480469 148.679688 44.492188 148.980469 46.273438 C 149.257812 47.917969 150.476562 49.089844 152.304688 48.726562 Z M 329.730469 607 C 327.976562 607.101562 326.828125 608.265625 326.921875 610.0625 C 327.015625 611.820312 328.1875 612.960938 329.980469 612.875 C 331.753906 612.792969 332.675781 611.574219 332.871094 609.824219 C 332.492188 608.105469 331.542969 606.894531 329.730469 607 Z M 359.179688 607.320312 C 357.585938 607.324219 356.566406 608.339844 356.566406 609.9375 C 356.5625 611.535156 357.585938 612.550781 359.179688 612.554688 C 360.78125 612.558594 361.640625 611.519531 361.84375 609.9375 C 361.644531 608.359375 360.78125 607.316406 359.179688 607.320312 Z M 359.179688 607.320312 "/></g></g></svg>