<svg xmlns="http://www.w3.org/2000/svg" xmlns:xlink="http://www.w3.org/1999/xlink" width="150" zoomAndPan="magnify" viewBox="0 0 112.5 37.5" height="50" preserveAspectRatio="xMidYMid meet" version="1.2"><defs><clipPath id="a8e1bd1772"><path d="M 15 26 L 16 26 L 16 30.191406 L 15 30.191406 Z M 15 26 "/></clipPath><clipPath id="be0b5d0adb"><path d="M 16 27 L 19 27 L 19 30.191406 L 16 30.191406 Z M 16 27 "/></clipPath><clipPath id="da52b1f687"><path d="M 14 8 L 20 8 L 20 30.191406 L 14 30.191406 Z M 14 8 "/></clipPath><clipPath id="a69edb4bb4"><path d="M 13 26 L 16 26 L 16 30.191406 L 13 30.191406 Z M 13 26 "/></clipPath><clipPath id="61ec879512"><path d="M 12 5.027344 L 22 5.027344 L 22 9 L 12 9 Z M 12 5.027344 "/></clipPath><clipPath id="d8ba1b7d53"><path d="M 5.8125 14 L 19 14 L 19 30.191406 L 5.8125 30.191406 Z M 5.8125 14 "/></clipPath></defs><g id="c357e55282"><path style="fill:none;stroke-width:1;stroke-linecap:round;stroke-linejoin:miter;stroke:#0a1f44;stroke-opacity:1;stroke-miterlimit:4;" d="M 0.502352 0.500934 L 37.404576 0.500934 " transform="matrix(0,0.740132,-0.740132,0,26.132476,3.706318)"/><g clip-rule="nonzero" clip-path="url(#a8e1bd1772)"><path style=" stroke:none;fill-rule:nonzero;fill:#c9a14a;fill-opacity:1;" d="M 15.386719 27.035156 C 15.542969 27.0625 15.707031 27.089844 15.867188 27.113281 L 15.867188 30.171875 C 15.707031 30.164062 15.550781 30.152344 15.386719 30.136719 C 15.28125 30.128906 15.171875 30.117188 15.066406 30.101562 L 15.066406 26.96875 C 15.171875 26.992188 15.277344 27.011719 15.386719 27.035156 Z M 15.386719 27.035156 "/></g><path style=" stroke:none;fill-rule:nonzero;fill:#c9a14a;fill-opacity:1;" d="M 15.859375 13.347656 L 15.859375 26.515625 C 15.765625 26.496094 15.667969 26.476562 15.578125 26.457031 C 15.515625 26.441406 15.449219 26.425781 15.386719 26.410156 C 15.34375 26.398438 15.300781 26.390625 15.261719 26.378906 C 15.195312 26.363281 15.132812 26.34375 15.070312 26.328125 L 15.070312 13.347656 Z M 15.859375 13.347656 "/><g clip-rule="nonzero" clip-path="url(#be0b5d0adb)"><path style=" stroke:none;fill-rule:nonzero;fill:#c9a14a;fill-opacity:1;" d="M 18.949219 28.679688 C 18.949219 28.9375 18.890625 29.191406 18.765625 29.417969 C 18.566406 29.777344 18.207031 30.046875 17.675781 30.113281 C 17.300781 30.160156 16.917969 30.183594 16.523438 30.1875 C 16.515625 30.1875 16.511719 30.1875 16.5 30.1875 L 16.5 27.183594 C 16.785156 27.210938 17.074219 27.21875 17.367188 27.21875 C 17.40625 27.21875 17.445312 27.21875 17.492188 27.21875 C 18.449219 27.210938 18.949219 27.945312 18.949219 28.679688 Z M 18.949219 28.679688 "/></g><path style=" stroke:none;fill-rule:nonzero;fill:#c9a14a;fill-opacity:1;" d="M 19.273438 8.390625 L 19.273438 8.929688 L 18.949219 8.929688 L 18.949219 27.019531 C 18.714844 26.824219 18.398438 26.695312 18 26.703125 C 17.960938 26.703125 17.917969 26.703125 17.875 26.703125 C 17.582031 26.703125 17.296875 26.691406 17.007812 26.667969 C 16.835938 26.652344 16.667969 26.636719 16.496094 26.609375 L 16.496094 13.03125 C 16.496094 12.851562 16.347656 12.707031 16.171875 12.707031 L 15.378906 12.707031 L 15.378906 8.945312 L 15.054688 8.945312 L 15.054688 8.390625 Z M 19.273438 8.390625 "/><g clip-rule="nonzero" clip-path="url(#da52b1f687)"><path style=" stroke:none;fill-rule:nonzero;fill:#c9a14a;fill-opacity:1;" d="M 19.273438 8.074219 L 15.066406 8.074219 C 14.890625 8.074219 14.742188 8.21875 14.742188 8.394531 L 14.742188 8.949219 L 15.386719 8.949219 L 15.386719 8.71875 L 18.957031 8.71875 L 18.957031 8.933594 L 19.601562 8.933594 L 19.601562 8.390625 C 19.59375 8.214844 19.449219 8.074219 19.273438 8.074219 Z M 14.742188 13.347656 L 14.742188 26.234375 C 14.851562 26.265625 14.957031 26.300781 15.066406 26.328125 C 15.132812 26.347656 15.191406 26.363281 15.257812 26.378906 C 15.296875 26.390625 15.34375 26.398438 15.382812 26.410156 L 15.382812 13.347656 Z M 15.066406 26.96875 C 14.960938 26.941406 14.851562 26.917969 14.742188 26.894531 L 14.742188 30.058594 C 14.851562 30.074219 14.957031 30.089844 15.066406 30.101562 C 15.171875 30.117188 15.277344 30.128906 15.386719 30.136719 L 15.386719 27.035156 C 15.277344 27.011719 15.171875 26.992188 15.066406 26.96875 Z M 15.066406 26.96875 "/></g><g clip-rule="nonzero" clip-path="url(#a69edb4bb4)"><path style=" stroke:none;fill-rule:nonzero;fill:#c9a14a;fill-opacity:1;" d="M 15.386719 27.035156 C 15.542969 27.0625 15.707031 27.089844 15.867188 27.113281 L 15.867188 30.171875 C 15.707031 30.164062 15.550781 30.152344 15.386719 30.136719 C 15.28125 30.128906 15.171875 30.117188 15.066406 30.101562 C 14.960938 30.089844 14.851562 30.074219 14.742188 30.058594 C 14.292969 29.988281 13.84375 29.886719 13.410156 29.757812 L 13.410156 26.457031 C 13.84375 26.632812 14.285156 26.777344 14.742188 26.894531 C 14.851562 26.917969 14.957031 26.949219 15.066406 26.96875 C 15.171875 26.992188 15.277344 27.011719 15.386719 27.035156 Z M 15.386719 27.035156 "/></g><path style=" stroke:none;fill-rule:nonzero;fill:#c9a14a;fill-opacity:1;" d="M 15.859375 13.347656 L 15.859375 26.515625 C 15.765625 26.496094 15.667969 26.476562 15.578125 26.457031 C 15.515625 26.441406 15.449219 26.425781 15.386719 26.410156 C 15.34375 26.398438 15.300781 26.390625 15.261719 26.378906 C 15.195312 26.363281 15.132812 26.34375 15.070312 26.328125 C 14.964844 26.300781 14.855469 26.269531 14.75 26.234375 C 14.472656 26.148438 14.195312 26.046875 13.929688 25.941406 C 13.757812 25.871094 13.585938 25.796875 13.414062 25.71875 L 13.414062 17.191406 C 13.414062 17.015625 13.273438 16.867188 13.09375 16.867188 L 12.296875 16.867188 L 12.296875 13.347656 Z M 15.859375 13.347656 "/><path style=" stroke:none;fill-rule:nonzero;fill:#c9a14a;fill-opacity:1;" d="M 12.292969 25.925781 C 12.449219 26.011719 12.609375 26.09375 12.769531 26.171875 L 12.769531 29.542969 C 12.609375 29.484375 12.453125 29.425781 12.292969 29.359375 C 12.1875 29.3125 12.078125 29.269531 11.972656 29.21875 L 11.972656 25.746094 C 12.082031 25.804688 12.1875 25.867188 12.292969 25.925781 Z M 12.292969 25.925781 "/><path style=" stroke:none;fill-rule:nonzero;fill:#c9a14a;fill-opacity:1;" d="M 12.769531 17.511719 L 12.769531 25.394531 C 12.675781 25.34375 12.582031 25.289062 12.488281 25.230469 C 12.425781 25.191406 12.359375 25.15625 12.296875 25.117188 C 12.253906 25.089844 12.214844 25.0625 12.171875 25.035156 C 12.105469 24.996094 12.042969 24.949219 11.980469 24.910156 L 11.980469 17.511719 Z M 12.769531 17.511719 "/><path style=" stroke:none;fill-rule:nonzero;fill:#c9a14a;fill-opacity:1;" d="M 11.65625 17.511719 L 11.65625 24.683594 C 11.761719 24.757812 11.867188 24.835938 11.976562 24.910156 C 12.042969 24.957031 12.101562 24.996094 12.167969 25.035156 C 12.207031 25.0625 12.253906 25.089844 12.292969 25.117188 L 12.292969 17.511719 Z M 11.976562 25.746094 C 11.871094 25.679688 11.761719 25.613281 11.65625 25.550781 L 11.65625 29.0625 C 11.761719 29.117188 11.867188 29.167969 11.976562 29.21875 C 12.082031 29.269531 12.1875 29.3125 12.296875 29.359375 L 12.296875 25.925781 C 12.1875 25.867188 12.082031 25.804688 11.976562 25.746094 Z M 11.976562 25.746094 "/><path style=" stroke:none;fill-rule:nonzero;fill:#c9a14a;fill-opacity:1;" d="M 12.292969 25.925781 C 12.449219 26.011719 12.609375 26.09375 12.769531 26.171875 L 12.769531 29.542969 C 12.609375 29.484375 12.453125 29.425781 12.292969 29.359375 C 12.1875 29.3125 12.078125 29.269531 11.972656 29.21875 C 11.867188 29.167969 11.753906 29.117188 11.648438 29.0625 C 10.753906 28.609375 9.929688 28.035156 9.199219 27.355469 L 9.199219 23.375 C 9.898438 24.222656 10.722656 24.957031 11.648438 25.550781 C 11.753906 25.613281 11.859375 25.683594 11.972656 25.746094 C 12.082031 25.804688 12.1875 25.867188 12.292969 25.925781 Z M 12.292969 25.925781 "/><path style=" stroke:none;fill-rule:nonzero;fill:#c9a14a;fill-opacity:1;" d="M 12.769531 17.511719 L 12.769531 25.394531 C 12.675781 25.34375 12.582031 25.289062 12.488281 25.230469 C 12.425781 25.191406 12.359375 25.15625 12.296875 25.117188 C 12.253906 25.089844 12.214844 25.0625 12.171875 25.035156 C 12.105469 24.996094 12.042969 24.949219 11.980469 24.910156 C 11.871094 24.835938 11.765625 24.765625 11.660156 24.683594 C 10.941406 24.160156 10.289062 23.546875 9.722656 22.855469 C 9.539062 22.640625 9.371094 22.414062 9.207031 22.183594 L 9.207031 17.511719 Z M 12.769531 17.511719 "/><g clip-rule="nonzero" clip-path="url(#61ec879512)"><path style=" stroke:none;fill-rule:nonzero;fill:#c9a14a;fill-opacity:1;" d="M 12.679688 8.953125 L 14.742188 8.945312 L 15.386719 8.945312 L 18.949219 8.929688 L 19.59375 8.929688 L 21.683594 8.921875 L 17.167969 5.027344 Z M 12.679688 8.953125 "/></g><g clip-rule="nonzero" clip-path="url(#d8ba1b7d53)"><path style=" stroke:none;fill-rule:nonzero;fill:#0a1f44;fill-opacity:1;" d="M 18.949219 28.679688 C 18.949219 28.9375 18.890625 29.191406 18.765625 29.417969 C 18.566406 29.777344 18.207031 30.046875 17.675781 30.113281 C 17.300781 30.160156 16.917969 30.183594 16.523438 30.1875 C 16.515625 30.1875 16.511719 30.1875 16.5 30.1875 C 16.285156 30.1875 16.074219 30.1875 15.859375 30.171875 C 15.699219 30.164062 15.542969 30.152344 15.382812 30.136719 C 15.277344 30.128906 15.167969 30.117188 15.0625 30.101562 C 14.957031 30.089844 14.84375 30.074219 14.738281 30.058594 C 14.285156 29.988281 13.839844 29.886719 13.40625 29.757812 C 13.1875 29.691406 12.976562 29.621094 12.765625 29.542969 C 12.605469 29.484375 12.449219 29.425781 12.289062 29.359375 C 12.183594 29.3125 12.070312 29.269531 11.964844 29.21875 C 11.859375 29.167969 11.75 29.117188 11.644531 29.0625 C 10.75 28.609375 9.921875 28.035156 9.195312 27.355469 C 7.144531 25.4375 5.84375 22.710938 5.820312 19.683594 C 5.8125 17.957031 6.214844 16.324219 6.933594 14.882812 C 6.875 15.234375 6.832031 15.585938 6.808594 15.949219 C 6.792969 16.175781 6.789062 16.40625 6.789062 16.644531 C 6.789062 19.199219 7.695312 21.542969 9.203125 23.371094 C 9.902344 24.214844 10.726562 24.949219 11.65625 25.542969 C 11.761719 25.609375 11.867188 25.679688 11.976562 25.742188 C 12.082031 25.800781 12.1875 25.867188 12.296875 25.921875 C 12.453125 26.007812 12.617188 26.085938 12.777344 26.167969 C 12.988281 26.269531 13.199219 26.363281 13.414062 26.449219 C 13.847656 26.625 14.292969 26.773438 14.75 26.886719 C 14.855469 26.914062 14.960938 26.941406 15.070312 26.964844 C 15.175781 26.988281 15.28125 27.007812 15.394531 27.027344 C 15.550781 27.058594 15.710938 27.085938 15.871094 27.109375 C 16.082031 27.140625 16.292969 27.164062 16.511719 27.179688 C 16.796875 27.203125 17.082031 27.214844 17.375 27.214844 C 17.417969 27.214844 17.457031 27.214844 17.5 27.214844 C 18.449219 27.210938 18.949219 27.945312 18.949219 28.679688 Z M 18.949219 28.679688 "/></g><g style="fill:#0a1f44;fill-opacity:1;"><g transform="translate(40.217586, 18.2493)"><path style="stroke:none" d="M 2.640625 -7.96875 L 2.640625 0 L 0.703125 0 L 0.703125 -7.96875 Z M 2.640625 -7.96875 "/></g></g><g style="fill:#0a1f44;fill-opacity:1;"><g transform="translate(43.560883, 18.2493)"><path style="stroke:none" d=""/></g></g><g style="fill:#0a1f44;fill-opacity:1;"><g transform="translate(45.963521, 18.2493)"><path style="stroke:none" d="M 5.53125 -4.078125 C 5.988281 -3.984375 6.359375 -3.753906 6.640625 -3.390625 C 6.921875 -3.035156 7.0625 -2.628906 7.0625 -2.171875 C 7.0625 -1.503906 6.828125 -0.972656 6.359375 -0.578125 C 5.890625 -0.191406 5.238281 0 4.40625 0 L 0.703125 0 L 0.703125 -7.96875 L 4.28125 -7.96875 C 5.09375 -7.96875 5.726562 -7.78125 6.1875 -7.40625 C 6.644531 -7.039062 6.875 -6.539062 6.875 -5.90625 C 6.875 -5.4375 6.75 -5.046875 6.5 -4.734375 C 6.257812 -4.421875 5.9375 -4.203125 5.53125 -4.078125 Z M 2.640625 -4.734375 L 3.90625 -4.734375 C 4.226562 -4.734375 4.472656 -4.800781 4.640625 -4.9375 C 4.816406 -5.082031 4.90625 -5.289062 4.90625 -5.5625 C 4.90625 -5.84375 4.816406 -6.050781 4.640625 -6.1875 C 4.472656 -6.332031 4.226562 -6.40625 3.90625 -6.40625 L 2.640625 -6.40625 Z M 4.078125 -1.5625 C 4.398438 -1.5625 4.648438 -1.632812 4.828125 -1.78125 C 5.003906 -1.9375 5.09375 -2.148438 5.09375 -2.421875 C 5.09375 -2.703125 5 -2.921875 4.8125 -3.078125 C 4.625 -3.242188 4.367188 -3.328125 4.046875 -3.328125 L 2.640625 -3.328125 L 2.640625 -1.5625 Z M 4.078125 -1.5625 "/></g></g><g style="fill:#0a1f44;fill-opacity:1;"><g transform="translate(53.432112, 18.2493)"><path style="stroke:none" d=""/></g></g><g style="fill:#0a1f44;fill-opacity:1;"><g transform="translate(55.83475, 18.2493)"><path style="stroke:none" d="M 5.65625 -1.40625 L 2.6875 -1.40625 L 2.21875 0 L 0.1875 0 L 3.0625 -7.96875 L 5.3125 -7.96875 L 8.1875 0 L 6.140625 0 Z M 5.15625 -2.90625 L 4.171875 -5.8125 L 3.203125 -2.90625 Z M 5.15625 -2.90625 "/></g></g><g style="fill:#0a1f44;fill-opacity:1;"><g transform="translate(64.187329, 18.2493)"><path style="stroke:none" d="M 1.609375 0.09375 C 1.265625 0.09375 0.984375 -0.00390625 0.765625 -0.203125 C 0.554688 -0.410156 0.453125 -0.660156 0.453125 -0.953125 C 0.453125 -1.253906 0.554688 -1.503906 0.765625 -1.703125 C 0.984375 -1.910156 1.265625 -2.015625 1.609375 -2.015625 C 1.941406 -2.015625 2.210938 -1.910156 2.421875 -1.703125 C 2.640625 -1.503906 2.75 -1.253906 2.75 -0.953125 C 2.75 -0.660156 2.640625 -0.410156 2.421875 -0.203125 C 2.210938 -0.00390625 1.941406 0.09375 1.609375 0.09375 Z M 1.609375 0.09375 "/></g></g><g style="fill:#0a1f44;fill-opacity:1;"><g transform="translate(33.569994, 25.759638)"><path style="stroke:none" d="M 2.625 -4.578125 C 2.851562 -4.578125 3.039062 -4.554688 3.1875 -4.515625 C 3.332031 -4.472656 3.488281 -4.421875 3.65625 -4.359375 C 3.675781 -4.347656 3.722656 -4.328125 3.796875 -4.296875 C 3.867188 -4.265625 3.929688 -4.25 3.984375 -4.25 C 4.148438 -4.25 4.253906 -4.351562 4.296875 -4.5625 L 4.421875 -4.5625 L 4.421875 -3.0625 L 4.296875 -3.0625 C 4.253906 -3.3125 4.160156 -3.53125 4.015625 -3.71875 C 3.878906 -3.90625 3.710938 -4.046875 3.515625 -4.140625 C 3.316406 -4.234375 3.113281 -4.28125 2.90625 -4.28125 C 2.613281 -4.28125 2.359375 -4.191406 2.140625 -4.015625 C 1.921875 -3.847656 1.75 -3.609375 1.625 -3.296875 C 1.507812 -2.984375 1.453125 -2.628906 1.453125 -2.234375 C 1.453125 -1.585938 1.578125 -1.082031 1.828125 -0.71875 C 2.085938 -0.363281 2.4375 -0.1875 2.875 -0.1875 C 3.15625 -0.1875 3.410156 -0.253906 3.640625 -0.390625 C 3.867188 -0.523438 4.097656 -0.726562 4.328125 -1 L 4.328125 -0.640625 C 4.085938 -0.378906 3.832031 -0.191406 3.5625 -0.078125 C 3.300781 0.0351562 3.003906 0.09375 2.671875 0.09375 C 2.191406 0.09375 1.769531 -0.00390625 1.40625 -0.203125 C 1.050781 -0.410156 0.773438 -0.679688 0.578125 -1.015625 C 0.390625 -1.359375 0.296875 -1.738281 0.296875 -2.15625 C 0.296875 -2.59375 0.398438 -2.992188 0.609375 -3.359375 C 0.828125 -3.734375 1.113281 -4.03125 1.46875 -4.25 C 1.820312 -4.46875 2.207031 -4.578125 2.625 -4.578125 Z M 2.625 -4.578125 "/></g></g><g style="fill:#0a1f44;fill-opacity:1;"><g transform="translate(38.253121, 25.759638)"><path style="stroke:none" d="M 2.671875 -4.578125 C 3.109375 -4.578125 3.507812 -4.484375 3.875 -4.296875 C 4.25 -4.109375 4.546875 -3.832031 4.765625 -3.46875 C 4.984375 -3.113281 5.09375 -2.695312 5.09375 -2.21875 C 5.09375 -1.789062 4.992188 -1.398438 4.796875 -1.046875 C 4.597656 -0.691406 4.316406 -0.410156 3.953125 -0.203125 C 3.585938 -0.00390625 3.160156 0.09375 2.671875 0.09375 C 2.203125 0.09375 1.785156 -0.00390625 1.421875 -0.203125 C 1.054688 -0.398438 0.769531 -0.675781 0.5625 -1.03125 C 0.363281 -1.382812 0.265625 -1.785156 0.265625 -2.234375 C 0.265625 -2.679688 0.367188 -3.082031 0.578125 -3.4375 C 0.785156 -3.789062 1.070312 -4.066406 1.4375 -4.265625 C 1.800781 -4.472656 2.210938 -4.578125 2.671875 -4.578125 Z M 1.421875 -2.25 C 1.421875 -1.90625 1.460938 -1.570312 1.546875 -1.25 C 1.640625 -0.925781 1.773438 -0.660156 1.953125 -0.453125 C 2.140625 -0.242188 2.378906 -0.140625 2.671875 -0.140625 C 2.921875 -0.140625 3.140625 -0.222656 3.328125 -0.390625 C 3.515625 -0.554688 3.660156 -0.789062 3.765625 -1.09375 C 3.867188 -1.40625 3.921875 -1.773438 3.921875 -2.203125 C 3.921875 -2.648438 3.867188 -3.035156 3.765625 -3.359375 C 3.671875 -3.679688 3.53125 -3.925781 3.34375 -4.09375 C 3.15625 -4.257812 2.929688 -4.34375 2.671875 -4.34375 C 2.441406 -4.34375 2.234375 -4.265625 2.046875 -4.109375 C 1.859375 -3.960938 1.707031 -3.726562 1.59375 -3.40625 C 1.476562 -3.09375 1.421875 -2.707031 1.421875 -2.25 Z M 1.421875 -2.25 "/></g></g><g style="fill:#0a1f44;fill-opacity:1;"><g transform="translate(43.613636, 25.759638)"><path style="stroke:none" d="M 4.140625 -1.5625 L 4.140625 -3.796875 C 4.140625 -3.992188 4.085938 -4.132812 3.984375 -4.21875 C 3.878906 -4.3125 3.707031 -4.359375 3.46875 -4.359375 L 3.46875 -4.46875 L 4.9375 -4.46875 L 4.9375 -4.359375 C 4.738281 -4.359375 4.59375 -4.304688 4.5 -4.203125 C 4.414062 -4.097656 4.375 -3.960938 4.375 -3.796875 L 4.375 0.0625 L 4.265625 0.0625 L 0.953125 -3.65625 L 0.953125 -0.65625 C 0.953125 -0.457031 1.003906 -0.316406 1.109375 -0.234375 C 1.222656 -0.160156 1.394531 -0.125 1.625 -0.125 L 1.671875 -0.125 L 1.671875 0 L 0.09375 0 L 0.09375 -0.125 C 0.519531 -0.125 0.734375 -0.296875 0.734375 -0.640625 L 0.734375 -3.921875 C 0.703125 -3.953125 0.644531 -4.007812 0.5625 -4.09375 C 0.488281 -4.1875 0.414062 -4.253906 0.34375 -4.296875 C 0.269531 -4.335938 0.1875 -4.359375 0.09375 -4.359375 L 0.09375 -4.46875 L 1.578125 -4.46875 Z M 4.140625 -1.5625 "/></g></g><g style="fill:#0a1f44;fill-opacity:1;"><g transform="translate(48.635452, 25.759638)"><path style="stroke:none" d="M 1.75 -4.578125 C 1.945312 -4.578125 2.117188 -4.554688 2.265625 -4.515625 C 2.421875 -4.472656 2.585938 -4.414062 2.765625 -4.34375 C 2.828125 -4.3125 2.882812 -4.285156 2.9375 -4.265625 C 2.988281 -4.242188 3.035156 -4.234375 3.078125 -4.234375 C 3.148438 -4.234375 3.207031 -4.257812 3.25 -4.3125 C 3.289062 -4.375 3.3125 -4.460938 3.3125 -4.578125 L 3.4375 -4.578125 L 3.4375 -3.125 L 3.3125 -3.125 C 3.269531 -3.351562 3.175781 -3.554688 3.03125 -3.734375 C 2.894531 -3.921875 2.71875 -4.0625 2.5 -4.15625 C 2.289062 -4.257812 2.0625 -4.3125 1.8125 -4.3125 C 1.550781 -4.3125 1.332031 -4.25 1.15625 -4.125 C 0.988281 -4 0.90625 -3.84375 0.90625 -3.65625 C 0.90625 -3.507812 0.957031 -3.382812 1.0625 -3.28125 C 1.164062 -3.1875 1.289062 -3.101562 1.4375 -3.03125 C 1.582031 -2.96875 1.789062 -2.894531 2.0625 -2.8125 C 2.320312 -2.71875 2.539062 -2.632812 2.71875 -2.5625 C 2.894531 -2.488281 3.050781 -2.398438 3.1875 -2.296875 C 3.34375 -2.171875 3.46875 -2.019531 3.5625 -1.84375 C 3.664062 -1.664062 3.71875 -1.46875 3.71875 -1.25 C 3.71875 -0.988281 3.644531 -0.753906 3.5 -0.546875 C 3.351562 -0.347656 3.148438 -0.191406 2.890625 -0.078125 C 2.640625 0.0351562 2.34375 0.09375 2 0.09375 C 1.789062 0.09375 1.613281 0.0703125 1.46875 0.03125 C 1.320312 0 1.171875 -0.046875 1.015625 -0.109375 C 0.867188 -0.171875 0.765625 -0.203125 0.703125 -0.203125 C 0.617188 -0.203125 0.546875 -0.175781 0.484375 -0.125 C 0.429688 -0.0820312 0.382812 -0.0078125 0.34375 0.09375 L 0.21875 0.09375 L 0.21875 -1.546875 L 0.34375 -1.546875 C 0.425781 -1.117188 0.613281 -0.773438 0.90625 -0.515625 C 1.195312 -0.265625 1.550781 -0.140625 1.96875 -0.140625 C 2.28125 -0.140625 2.523438 -0.203125 2.703125 -0.328125 C 2.890625 -0.453125 2.984375 -0.625 2.984375 -0.84375 C 2.984375 -1.007812 2.929688 -1.148438 2.828125 -1.265625 C 2.722656 -1.390625 2.585938 -1.488281 2.421875 -1.5625 C 2.265625 -1.632812 2.050781 -1.71875 1.78125 -1.8125 C 1.445312 -1.925781 1.175781 -2.035156 0.96875 -2.140625 C 0.769531 -2.242188 0.597656 -2.382812 0.453125 -2.5625 C 0.304688 -2.75 0.234375 -2.984375 0.234375 -3.265625 C 0.234375 -3.515625 0.296875 -3.738281 0.421875 -3.9375 C 0.554688 -4.132812 0.738281 -4.289062 0.96875 -4.40625 C 1.195312 -4.519531 1.457031 -4.578125 1.75 -4.578125 Z M 1.75 -4.578125 "/></g></g><g style="fill:#0a1f44;fill-opacity:1;"><g transform="translate(52.569534, 25.759638)"><path style="stroke:none" d="M 2.3125 -4.359375 C 2.113281 -4.359375 1.972656 -4.320312 1.890625 -4.25 C 1.804688 -4.175781 1.765625 -4.039062 1.765625 -3.84375 L 1.765625 -1.171875 C 1.765625 -0.898438 1.847656 -0.671875 2.015625 -0.484375 C 2.191406 -0.296875 2.460938 -0.203125 2.828125 -0.203125 C 3.253906 -0.203125 3.578125 -0.332031 3.796875 -0.59375 C 4.015625 -0.851562 4.125 -1.175781 4.125 -1.5625 L 4.125 -3.796875 C 4.125 -3.992188 4.078125 -4.132812 3.984375 -4.21875 C 3.898438 -4.3125 3.757812 -4.359375 3.5625 -4.359375 L 3.5625 -4.46875 L 4.9375 -4.46875 L 4.9375 -4.359375 C 4.726562 -4.359375 4.578125 -4.3125 4.484375 -4.21875 C 4.398438 -4.132812 4.359375 -3.976562 4.359375 -3.75 L 4.359375 -1.578125 C 4.359375 -1.035156 4.203125 -0.617188 3.890625 -0.328125 C 3.578125 -0.046875 3.128906 0.09375 2.546875 0.09375 C 2.128906 0.09375 1.785156 0.0234375 1.515625 -0.109375 C 1.242188 -0.242188 1.039062 -0.421875 0.90625 -0.640625 C 0.78125 -0.859375 0.71875 -1.109375 0.71875 -1.390625 L 0.71875 -3.859375 C 0.71875 -4.054688 0.671875 -4.1875 0.578125 -4.25 C 0.484375 -4.320312 0.320312 -4.359375 0.09375 -4.359375 L 0.09375 -4.46875 L 2.3125 -4.46875 Z M 2.3125 -4.359375 "/></g></g><g style="fill:#0a1f44;fill-opacity:1;"><g transform="translate(57.591351, 25.759638)"><path style="stroke:none" d="M 2.625 -4.359375 C 2.40625 -4.359375 2.242188 -4.347656 2.140625 -4.328125 C 2.046875 -4.304688 1.972656 -4.253906 1.921875 -4.171875 C 1.867188 -4.097656 1.84375 -3.972656 1.84375 -3.796875 L 1.84375 -0.59375 C 1.84375 -0.46875 1.875 -0.375 1.9375 -0.3125 C 2.007812 -0.257812 2.113281 -0.234375 2.25 -0.234375 L 2.71875 -0.234375 C 3.082031 -0.234375 3.375 -0.335938 3.59375 -0.546875 C 3.8125 -0.753906 3.972656 -1.082031 4.078125 -1.53125 L 4.1875 -1.53125 L 4.03125 0 L 0.109375 0 L 0.109375 -0.125 C 0.296875 -0.125 0.4375 -0.132812 0.53125 -0.15625 C 0.625 -0.1875 0.691406 -0.238281 0.734375 -0.3125 C 0.785156 -0.394531 0.8125 -0.519531 0.8125 -0.6875 L 0.8125 -3.796875 C 0.8125 -3.972656 0.785156 -4.097656 0.734375 -4.171875 C 0.679688 -4.253906 0.609375 -4.304688 0.515625 -4.328125 C 0.429688 -4.347656 0.296875 -4.359375 0.109375 -4.359375 L 0.109375 -4.46875 L 2.625 -4.46875 Z M 2.625 -4.359375 "/></g></g><g style="fill:#0a1f44;fill-opacity:1;"><g transform="translate(61.518923, 25.759638)"><path style="stroke:none" d="M 4.15625 -3.296875 L 4.046875 -3.296875 C 4.015625 -3.609375 3.914062 -3.84375 3.75 -4 C 3.59375 -4.15625 3.410156 -4.234375 3.203125 -4.234375 L 2.6875 -4.234375 L 2.6875 -0.703125 C 2.6875 -0.546875 2.707031 -0.425781 2.75 -0.34375 C 2.800781 -0.257812 2.867188 -0.203125 2.953125 -0.171875 C 3.046875 -0.140625 3.175781 -0.125 3.34375 -0.125 L 3.34375 0 L 1 0 L 1 -0.125 C 1.164062 -0.125 1.289062 -0.132812 1.375 -0.15625 C 1.46875 -0.175781 1.535156 -0.226562 1.578125 -0.3125 C 1.628906 -0.394531 1.65625 -0.519531 1.65625 -0.6875 L 1.65625 -4.234375 L 1.09375 -4.234375 C 0.894531 -4.234375 0.71875 -4.144531 0.5625 -3.96875 C 0.414062 -3.800781 0.328125 -3.578125 0.296875 -3.296875 L 0.171875 -3.296875 L 0.171875 -4.46875 L 4.15625 -4.46875 Z M 4.15625 -3.296875 "/></g></g><g style="fill:#0a1f44;fill-opacity:1;"><g transform="translate(65.863352, 25.759638)"><path style="stroke:none" d="M 2.40625 -4.359375 C 2.238281 -4.359375 2.113281 -4.34375 2.03125 -4.3125 C 1.945312 -4.289062 1.882812 -4.238281 1.84375 -4.15625 C 1.800781 -4.082031 1.78125 -3.960938 1.78125 -3.796875 L 1.78125 -0.671875 C 1.78125 -0.503906 1.800781 -0.378906 1.84375 -0.296875 C 1.882812 -0.222656 1.945312 -0.175781 2.03125 -0.15625 C 2.113281 -0.132812 2.238281 -0.125 2.40625 -0.125 L 2.40625 0 L 0.109375 0 L 0.109375 -0.125 C 0.273438 -0.125 0.398438 -0.132812 0.484375 -0.15625 C 0.566406 -0.175781 0.628906 -0.222656 0.671875 -0.296875 C 0.710938 -0.378906 0.734375 -0.503906 0.734375 -0.671875 L 0.734375 -3.796875 C 0.734375 -3.960938 0.710938 -4.082031 0.671875 -4.15625 C 0.628906 -4.238281 0.566406 -4.289062 0.484375 -4.3125 C 0.398438 -4.34375 0.273438 -4.359375 0.109375 -4.359375 L 0.109375 -4.46875 L 2.40625 -4.46875 Z M 2.40625 -4.359375 "/></g></g><g style="fill:#0a1f44;fill-opacity:1;"><g transform="translate(68.371002, 25.759638)"><path style="stroke:none" d="M 4.140625 -1.5625 L 4.140625 -3.796875 C 4.140625 -3.992188 4.085938 -4.132812 3.984375 -4.21875 C 3.878906 -4.3125 3.707031 -4.359375 3.46875 -4.359375 L 3.46875 -4.46875 L 4.9375 -4.46875 L 4.9375 -4.359375 C 4.738281 -4.359375 4.59375 -4.304688 4.5 -4.203125 C 4.414062 -4.097656 4.375 -3.960938 4.375 -3.796875 L 4.375 0.0625 L 4.265625 0.0625 L 0.953125 -3.65625 L 0.953125 -0.65625 C 0.953125 -0.457031 1.003906 -0.316406 1.109375 -0.234375 C 1.222656 -0.160156 1.394531 -0.125 1.625 -0.125 L 1.671875 -0.125 L 1.671875 0 L 0.09375 0 L 0.09375 -0.125 C 0.519531 -0.125 0.734375 -0.296875 0.734375 -0.640625 L 0.734375 -3.921875 C 0.703125 -3.953125 0.644531 -4.007812 0.5625 -4.09375 C 0.488281 -4.1875 0.414062 -4.253906 0.34375 -4.296875 C 0.269531 -4.335938 0.1875 -4.359375 0.09375 -4.359375 L 0.09375 -4.46875 L 1.578125 -4.46875 Z M 4.140625 -1.5625 "/></g></g><g style="fill:#0a1f44;fill-opacity:1;"><g transform="translate(73.392818, 25.759638)"><path style="stroke:none" d="M 2.640625 -4.578125 C 2.867188 -4.578125 3.0625 -4.554688 3.21875 -4.515625 C 3.382812 -4.472656 3.550781 -4.414062 3.71875 -4.34375 C 3.84375 -4.289062 3.929688 -4.265625 3.984375 -4.265625 C 4.066406 -4.265625 4.128906 -4.285156 4.171875 -4.328125 C 4.210938 -4.378906 4.25 -4.457031 4.28125 -4.5625 L 4.40625 -4.5625 L 4.40625 -3.046875 L 4.28125 -3.046875 C 4.144531 -3.453125 3.9375 -3.765625 3.65625 -3.984375 C 3.382812 -4.203125 3.082031 -4.3125 2.75 -4.3125 C 2.332031 -4.3125 2.007812 -4.117188 1.78125 -3.734375 C 1.5625 -3.347656 1.453125 -2.816406 1.453125 -2.140625 C 1.453125 -1.316406 1.609375 -0.757812 1.921875 -0.46875 C 2.046875 -0.351562 2.179688 -0.269531 2.328125 -0.21875 C 2.472656 -0.164062 2.613281 -0.140625 2.75 -0.140625 C 2.945312 -0.140625 3.15625 -0.1875 3.375 -0.28125 L 3.375 -1.375 C 3.375 -1.644531 3.203125 -1.78125 2.859375 -1.78125 L 2.8125 -1.78125 L 2.8125 -1.890625 L 4.9375 -1.890625 L 4.9375 -1.78125 C 4.582031 -1.78125 4.40625 -1.644531 4.40625 -1.375 L 4.40625 -0.28125 C 4.1875 -0.164062 3.925781 -0.0703125 3.625 0 C 3.320312 0.0625 3.019531 0.09375 2.71875 0.09375 C 2.21875 0.09375 1.78125 -0.00390625 1.40625 -0.203125 C 1.039062 -0.398438 0.757812 -0.664062 0.5625 -1 C 0.375 -1.34375 0.28125 -1.722656 0.28125 -2.140625 C 0.28125 -2.578125 0.382812 -2.984375 0.59375 -3.359375 C 0.8125 -3.734375 1.097656 -4.03125 1.453125 -4.25 C 1.816406 -4.46875 2.210938 -4.578125 2.640625 -4.578125 Z M 2.640625 -4.578125 "/></g></g></g></svg>